G04 Layer_Color=16711935*
%FSTAX24Y24*%
%MOIN*%
G70*
G01*
G75*
%ADD40R,0.0671X0.0828*%
%ADD41R,0.0680X0.0837*%
%ADD43R,0.0513X0.0415*%
%ADD51C,0.0867*%
%ADD52C,0.0552*%
%ADD53R,0.0867X0.0867*%
%ADD54C,0.0524*%
%ADD55C,0.0580*%
%ADD56C,0.0591*%
%ADD57C,0.0671*%
%ADD58R,0.0572X0.0808*%
%ADD59R,0.0356X0.0454*%
%ADD60R,0.2521X0.1576*%
%ADD61R,0.1261X0.0572*%
D40*
X03065Y0311D02*
D03*
D41*
Y03285D02*
D03*
D43*
X028746Y0315D02*
D03*
X029554D02*
D03*
D51*
X0206Y03275D02*
D03*
X02055Y03055D02*
D03*
X0206Y0316D02*
D03*
D52*
X0267Y0336D02*
D03*
X0262Y03305D02*
D03*
D53*
X0206Y03335D02*
D03*
D54*
X02905Y0307D02*
D03*
X02575Y03055D02*
D03*
X02465Y0316D02*
D03*
D55*
X02425Y03255D02*
D03*
X02385Y03355D02*
D03*
X0265Y0315D02*
D03*
X0283Y0325D02*
D03*
X0282Y0315D02*
D03*
D56*
X025Y03095D02*
Y0312D01*
X0244Y03035D02*
X025Y03095D01*
X02205Y03035D02*
X0244D01*
X02105D02*
X02205D01*
D57*
X02975Y0335D02*
D03*
D58*
X02851Y03275D02*
D03*
X02979D02*
D03*
D59*
X029545Y03095D02*
D03*
X028955D02*
D03*
D60*
X022525Y0322D02*
D03*
D61*
X025064Y031302D02*
D03*
Y033098D02*
D03*
M02*
