G04 Layer_Color=32768*
%FSTAX24Y24*%
%MOIN*%
G70*
G01*
G75*
%ADD62C,0.0039*%
%ADD66C,0.0020*%
D62*
X029593Y03085D02*
X029907D01*
X02975Y030693D02*
Y031007D01*
X027Y030193D02*
Y030507D01*
X026843Y03035D02*
X027157D01*
X0264Y031953D02*
Y032347D01*
X026203Y03215D02*
X026597D01*
X02915Y032553D02*
Y032947D01*
X028953Y03275D02*
X029347D01*
X02925Y030793D02*
Y031107D01*
X029093Y03095D02*
X029407D01*
X02915Y031343D02*
Y031657D01*
X028993Y0315D02*
X029307D01*
X022144Y0311D02*
X022538D01*
X022341Y030903D02*
Y031297D01*
X023903Y0318D02*
X024297D01*
X0241Y031603D02*
Y031997D01*
X022103Y033D02*
X022497D01*
X0223Y032803D02*
Y033197D01*
X023903Y03045D02*
X024297D01*
X0241Y030253D02*
Y030647D01*
X02345Y032003D02*
Y032397D01*
X023253Y0322D02*
X023647D01*
X02885Y030753D02*
Y031147D01*
X028653Y03095D02*
X029047D01*
X0242Y033093D02*
Y033407D01*
X024043Y03325D02*
X024357D01*
X029643Y03305D02*
X029957D01*
X0298Y032893D02*
Y033207D01*
X0287Y033093D02*
Y033407D01*
X028543Y03325D02*
X028857D01*
D66*
X029474Y03015D02*
Y03155D01*
X030026Y03015D02*
Y03155D01*
X029474Y03015D02*
X030026D01*
X029474Y03155D02*
X030026D01*
X0263Y030074D02*
X0277D01*
X0263Y030626D02*
X0277D01*
Y030074D02*
Y030626D01*
X0263Y030074D02*
Y030626D01*
X024865Y030752D02*
X027935D01*
X024865Y033548D02*
X027935D01*
Y030752D02*
Y033548D01*
X024865Y030752D02*
Y033548D01*
X028166Y032287D02*
X030134D01*
X028166Y033213D02*
X030134D01*
X028166Y032287D02*
Y033213D01*
X030134Y032287D02*
Y033213D01*
X028719Y031245D02*
X029781D01*
X028719Y030655D02*
X029781D01*
Y031245D01*
X028719Y030655D02*
Y031245D01*
X02845Y031224D02*
X02985D01*
X02845Y031776D02*
X02985D01*
X02845Y031224D02*
Y031776D01*
X02985Y031224D02*
Y031776D01*
X023433Y030096D02*
Y032104D01*
X021267Y030096D02*
Y032104D01*
Y030096D02*
X023433D01*
X021267Y032104D02*
X023433D01*
X024769Y031426D02*
Y032174D01*
X023431Y031426D02*
Y032174D01*
Y031426D02*
X024769D01*
X023431Y032174D02*
X024769D01*
X023481Y03237D02*
Y03363D01*
X021119Y03237D02*
Y03363D01*
Y03237D02*
X023481D01*
X021119Y03363D02*
X023481D01*
X023431Y030076D02*
Y030824D01*
X024769Y030076D02*
Y030824D01*
X023431D02*
X024769D01*
X023431Y030076D02*
X024769D01*
X021167Y030802D02*
X025733D01*
X021167Y033598D02*
X025733D01*
X021167Y030802D02*
Y033598D01*
X025733Y030802D02*
Y033598D01*
X028161Y030123D02*
X029539D01*
X028161Y031777D02*
X029539D01*
X028161Y030123D02*
Y031777D01*
X029539Y030123D02*
Y031777D01*
X0235Y032974D02*
X0249D01*
X0235Y033526D02*
X0249D01*
Y032974D02*
Y033526D01*
X0235Y032974D02*
Y033526D01*
X030076Y03235D02*
Y03375D01*
X029524Y03235D02*
Y03375D01*
X030076D01*
X029524Y03235D02*
X030076D01*
X028Y033526D02*
X0294D01*
X028Y032974D02*
X0294D01*
X028D02*
Y033526D01*
X0294Y032974D02*
Y033526D01*
M02*
