G04 Layer_Color=32896*
%FSTAX24Y24*%
%MOIN*%
G70*
G01*
G75*
%ADD36C,0.0098*%
%ADD37C,0.0100*%
%ADD38C,0.0079*%
%ADD39C,0.0071*%
%ADD62C,0.0039*%
%ADD63R,0.0217X0.0650*%
D36*
X025113Y03356D02*
G03*
X025113Y03356I-000049J0D01*
G01*
D37*
X03015Y03175D02*
X03105D01*
X03015Y0305D02*
Y03175D01*
Y0305D02*
X03105D01*
Y03175D01*
X03321Y03275D02*
Y03215D01*
X03291D01*
X03281Y03225D01*
Y03265D01*
X03291Y03275D01*
X03321D01*
X03231Y03215D02*
Y03275D01*
X03261Y03245D01*
X03221D01*
X0355Y0316D02*
X0349D01*
Y0319D01*
X035Y032D01*
X0354D01*
X0355Y0319D01*
Y0316D01*
X0349Y0326D02*
Y0322D01*
X0353Y0326D01*
X0354D01*
X0355Y0325D01*
Y0323D01*
X0354Y0322D01*
X0348Y03395D02*
X0342D01*
Y03425D01*
X0343Y03435D01*
X0347D01*
X0348Y03425D01*
Y03395D01*
X0347Y03455D02*
X0348Y03465D01*
Y03485D01*
X0347Y03495D01*
X0346D01*
X0345Y03485D01*
Y03475D01*
Y03485D01*
X0344Y03495D01*
X0343D01*
X0342Y03485D01*
Y03465D01*
X0343Y03455D01*
X03265Y038D02*
Y0386D01*
X03235D01*
X03225Y0385D01*
Y0383D01*
X03235Y0382D01*
X03265D01*
X03205Y0386D02*
X03165D01*
Y0385D01*
X03205Y0381D01*
Y038D01*
X0344Y0329D02*
X035D01*
Y0332D01*
X0349Y0333D01*
X0347D01*
X0346Y0332D01*
Y0329D01*
Y0331D02*
X0344Y0333D01*
X035Y0339D02*
Y0335D01*
X0347D01*
X0348Y0337D01*
Y0338D01*
X0347Y0339D01*
X0345D01*
X0344Y0338D01*
Y0336D01*
X0345Y0335D01*
X02665Y03775D02*
Y03815D01*
X02675Y03825D01*
X02695D01*
X02705Y03815D01*
Y03775D01*
X02695Y03765D01*
X02675D01*
X02685Y03785D02*
X02665Y03765D01*
X02675D02*
X02665Y03775D01*
X02645Y03765D02*
X02625D01*
X02635D01*
Y03825D01*
X02645Y03815D01*
D38*
X029386Y032425D02*
Y033075D01*
X028914Y032425D02*
X029386D01*
X028914Y033075D02*
X029386D01*
X029211Y031098D02*
X029289D01*
X029211Y030802D02*
X029289D01*
X029111Y031372D02*
X029189D01*
X029111Y031628D02*
X029189D01*
X023942Y030901D02*
X024257D01*
Y033499D01*
X023942D02*
X024257D01*
D39*
X025Y0303D02*
X024829D01*
X024915D01*
Y030812D01*
X025D01*
X024574Y0303D02*
X024403D01*
X024488D01*
Y030641D01*
X024574D01*
X024147Y0303D02*
Y030641D01*
X023891D01*
X023806Y030556D01*
Y0303D01*
X023636Y030556D02*
X023295D01*
X023039Y030726D02*
Y030641D01*
X023124D01*
X022953D01*
X023039D01*
Y030385D01*
X022953Y0303D01*
X022442D02*
X022612D01*
X022698Y030385D01*
Y030556D01*
X022612Y030641D01*
X022442D01*
X022357Y030556D01*
Y030471D01*
X022698D01*
X021845Y030641D02*
X022101D01*
X022186Y030556D01*
Y030385D01*
X022101Y0303D01*
X021845D01*
X021674Y030812D02*
Y0303D01*
Y030556D01*
X021589Y030641D01*
X021418D01*
X021333Y030556D01*
Y0303D01*
D62*
X028753Y030679D02*
G03*
X028753Y030679I-00002J0D01*
G01*
D63*
X029278Y03275D02*
D03*
M02*
