G04 Layer_Color=8421504*
%FSTAX24Y24*%
%MOIN*%
G70*
G01*
G75*
%ADD10R,0.0591X0.0748*%
%ADD11R,0.0600X0.0757*%
%ADD12R,0.0335X0.0433*%
%ADD13R,0.0433X0.0335*%
%ADD14O,0.0551X0.0177*%
%ADD15R,0.0551X0.0177*%
%ADD16R,0.0551X0.0236*%
%ADD17R,0.0709X0.0236*%
%ADD18R,0.0453X0.0551*%
%ADD19R,0.0787X0.0650*%
%ADD20R,0.0236X0.0374*%
%ADD21C,0.0787*%
G36*
X022626Y031218D02*
Y030982D01*
X022494Y03085D01*
X021498D01*
X021366Y030982D01*
Y031218D01*
X021498Y03135D01*
X022494D01*
X022626Y031218D01*
D02*
G37*
D10*
X03065Y03285D02*
D03*
D11*
Y0311D02*
D03*
D12*
X02975Y030446D02*
D03*
Y031254D02*
D03*
X0298Y033454D02*
D03*
Y032646D02*
D03*
D13*
X027404Y03035D02*
D03*
X026596D02*
D03*
X024604Y03325D02*
D03*
X023796D02*
D03*
X028296D02*
D03*
X029104D02*
D03*
D14*
X027561Y030998D02*
D03*
Y031254D02*
D03*
Y03151D02*
D03*
Y031766D02*
D03*
Y032022D02*
D03*
Y032278D02*
D03*
Y032534D02*
D03*
Y03279D02*
D03*
Y033046D02*
D03*
Y033302D02*
D03*
X025239Y030998D02*
D03*
Y031254D02*
D03*
Y03151D02*
D03*
Y031766D02*
D03*
Y032022D02*
D03*
Y032278D02*
D03*
Y032534D02*
D03*
Y03279D02*
D03*
Y033046D02*
D03*
D15*
Y033302D02*
D03*
D16*
X023059Y030509D02*
D03*
Y031691D02*
D03*
D17*
X02298Y0311D02*
D03*
D18*
X024444Y0318D02*
D03*
X023756D02*
D03*
Y03045D02*
D03*
X024444D02*
D03*
D19*
X023038Y033D02*
D03*
X021562D02*
D03*
D20*
X028476Y030409D02*
D03*
X029224D02*
D03*
X02885Y031491D02*
D03*
D21*
X02905Y03225D02*
D03*
M02*
