G04 Layer_Color=128*
%FSTAX24Y24*%
%MOIN*%
G70*
G01*
G75*
%ADD71C,0.0020*%
D71*
X035782Y03105D02*
X036018D01*
X0359Y030932D02*
Y031168D01*
X035082Y0335D02*
X035318D01*
X0352Y033382D02*
Y033618D01*
X026618Y03275D02*
X026882D01*
X02675Y032618D02*
Y032882D01*
X027368Y0325D02*
X027632D01*
X0275Y032368D02*
Y032632D01*
X020386Y03065D02*
X020622D01*
X020504Y030532D02*
Y030768D01*
X020386Y03335D02*
X020622D01*
X020504Y033232D02*
Y033468D01*
X03621Y03325D02*
X03649D01*
X03635Y03311D02*
Y03339D01*
X030432Y03285D02*
X030668D01*
X03055Y032732D02*
Y032968D01*
X030182Y03165D02*
X030418D01*
X0303Y031532D02*
Y031768D01*
X035232Y03105D02*
X035468D01*
X03535Y030932D02*
Y031168D01*
X035432Y03105D02*
X035668D01*
X03555Y030932D02*
Y031168D01*
X03616Y03225D02*
X03644D01*
X0363Y03211D02*
Y03239D01*
X031232Y0313D02*
X031468D01*
X03135Y031182D02*
Y031418D01*
X03161Y0313D02*
X03189D01*
X03175Y03116D02*
Y03144D01*
X030932Y0313D02*
X031168D01*
X03105Y031182D02*
Y031418D01*
X02206Y0323D02*
X02234D01*
X0222Y03216D02*
Y03244D01*
X02751Y0318D02*
X02779D01*
X02765Y03166D02*
Y03194D01*
X02691Y0312D02*
X02719D01*
X02705Y03106D02*
Y03134D01*
X028782Y0308D02*
X029018D01*
X0289Y030682D02*
Y030918D01*
X020382Y0331D02*
X020618D01*
X0205Y032982D02*
Y033218D01*
X020386Y03095D02*
X020622D01*
X020504Y030832D02*
Y031068D01*
X020382Y0336D02*
X020618D01*
X0205Y033482D02*
Y033718D01*
X034082Y0336D02*
X034318D01*
X0342Y033482D02*
Y033718D01*
X034682Y0336D02*
X034918D01*
X0348Y033482D02*
Y033718D01*
X034382Y0336D02*
X034618D01*
X0345Y033482D02*
Y033718D01*
M02*
