G04 Layer_Color=32768*
%FSTAX24Y24*%
%MOIN*%
G70*
G01*
G75*
%ADD43C,0.0039*%
%ADD70C,0.0020*%
D43*
X033053Y03185D02*
X033447D01*
X03325Y031653D02*
Y032047D01*
X0222Y033053D02*
Y033447D01*
X022003Y03325D02*
X022397D01*
X026993Y0304D02*
X027307D01*
X02715Y030243D02*
Y030557D01*
X02915Y031043D02*
Y031357D01*
X028993Y0312D02*
X029307D01*
X0303Y032293D02*
Y032607D01*
X030143Y03245D02*
X030457D01*
X0297Y031043D02*
Y031357D01*
X029543Y0312D02*
X029857D01*
X0303Y030943D02*
Y031257D01*
X030143Y0311D02*
X030457D01*
X027093Y03365D02*
X027407D01*
X02725Y033493D02*
Y033807D01*
X02525Y032803D02*
Y033197D01*
X025053Y033D02*
X025447D01*
X02495Y030943D02*
Y031257D01*
X024793Y0311D02*
X025107D01*
X023803Y03095D02*
X024197D01*
X024Y030753D02*
Y031147D01*
X02415Y032103D02*
Y032497D01*
X023953Y0323D02*
X024347D01*
X026953Y03205D02*
X027347D01*
X02715Y031853D02*
Y032247D01*
X022091Y030903D02*
Y031297D01*
X021894Y0311D02*
X022288D01*
X020353Y031956D02*
X020747D01*
X02055Y031759D02*
Y032152D01*
D70*
X030967Y030452D02*
Y033248D01*
X035533Y030452D02*
Y033248D01*
X030967D02*
X035533D01*
X030967Y030452D02*
X035533D01*
X021019Y03388D02*
X023381D01*
X021019Y03262D02*
X023381D01*
X021019D02*
Y03388D01*
X023381Y03262D02*
Y03388D01*
X02645Y030124D02*
Y030676D01*
X02785Y030124D02*
Y030676D01*
X02645D02*
X02785D01*
X02645Y030124D02*
X02785D01*
X028874Y0305D02*
X029426D01*
X028874Y0319D02*
X029426D01*
X028874Y0305D02*
Y0319D01*
X029426Y0305D02*
Y0319D01*
X030024Y03175D02*
X030576D01*
X030024Y03315D02*
X030576D01*
X030024Y03175D02*
Y03315D01*
X030576Y03175D02*
Y03315D01*
X029424Y0305D02*
X029976D01*
X029424Y0319D02*
X029976D01*
X029424Y0305D02*
Y0319D01*
X029976Y0305D02*
Y0319D01*
X030005Y031632D02*
X030595D01*
X030005Y030568D02*
X030595D01*
Y031632D01*
X030005Y030568D02*
Y031632D01*
X02795Y033374D02*
Y033926D01*
X02655Y033374D02*
Y033926D01*
Y033374D02*
X02795D01*
X02655Y033926D02*
X02795D01*
X024787Y033984D02*
X025713D01*
X024787Y032016D02*
X025713D01*
Y033984D01*
X024787Y032016D02*
Y033984D01*
X024674Y0304D02*
X025226D01*
X024674Y0318D02*
X025226D01*
X024674Y0304D02*
Y0318D01*
X025226Y0304D02*
Y0318D01*
X023311Y030123D02*
Y031777D01*
X024689Y030123D02*
Y031777D01*
X023311Y030123D02*
X024689D01*
X023311Y031777D02*
X024689D01*
X023481Y031926D02*
X024819D01*
X023481Y032674D02*
X024819D01*
Y031926D02*
Y032674D01*
X023481Y031926D02*
Y032674D01*
X025615Y030652D02*
Y033448D01*
X028685Y030652D02*
Y033448D01*
X025615D02*
X028685D01*
X025615Y030652D02*
X028685D01*
X021017Y032104D02*
X023183D01*
X021017Y030096D02*
X023183D01*
X021017D02*
Y032104D01*
X023183Y030096D02*
Y032104D01*
X020924Y031286D02*
Y032625D01*
X020176Y031286D02*
Y032625D01*
X020924D01*
X020176Y031286D02*
X020924D01*
M02*
