M48
;Layer_Color=9474304
;FILE_FORMAT=2:4
INCH,LZ
;TYPE=PLATED
T1F00S00C0.0236
T2F00S00C0.0264
T3F00S00C0.0280
%
T01
X03535Y03105
X03555
X0359
X0289Y0308
X020504Y03095
Y03065
X0205Y0331
X020504Y03335
X0205Y0336
X03055Y03285
X0303Y03165
X03105Y0313
X03135
X0342Y0336
X0345
X0348
X0352Y0335
T02
X02675Y03275
X0275Y0325
T03
X02705Y0312
X02765Y0318
X0222Y0323
X03175Y0313
X0363Y03225
X03635Y03325
M30
