G04 Layer_Color=8388736*
%FSTAX24Y24*%
%MOIN*%
G70*
G01*
G75*
%ADD47R,0.1261X0.0572*%
%ADD48R,0.2521X0.1576*%
%ADD49R,0.0867X0.0730*%
%ADD50R,0.0513X0.0415*%
%ADD51C,0.0671*%
%ADD52R,0.0415X0.0513*%
%ADD53R,0.0837X0.0680*%
%ADD54C,0.0867*%
%ADD55R,0.0454X0.0356*%
%ADD56R,0.0808X0.0572*%
%ADD57R,0.0316X0.0454*%
%ADD58R,0.0533X0.0631*%
%ADD59R,0.0631X0.0257*%
%ADD60O,0.0631X0.0257*%
%ADD61R,0.0631X0.0316*%
%ADD62R,0.0789X0.0316*%
%ADD63R,0.0631X0.0533*%
%ADD64C,0.0552*%
%ADD65R,0.0867X0.0867*%
%ADD66C,0.0580*%
%ADD67C,0.0521*%
G36*
X022249Y03139D02*
X022254Y031389D01*
X022259Y031387D01*
X022264Y031385D01*
X022268Y031382D01*
X022272Y031378D01*
X022404Y031246D01*
X022407Y031243D01*
X02241Y031238D01*
X022413Y031233D01*
X022414Y031228D01*
X022415Y031223D01*
X022416Y031218D01*
Y030982D01*
X022415Y030977D01*
X022414Y030972D01*
X022413Y030967D01*
X02241Y030962D01*
X022407Y030957D01*
X022404Y030954D01*
X022272Y030822D01*
X022268Y030818D01*
X022264Y030815D01*
X022259Y030813D01*
X022254Y030811D01*
X022249Y03081D01*
X022244Y03081D01*
X021248D01*
X021242Y03081D01*
X021237Y030811D01*
X021232Y030813D01*
X021228Y030815D01*
X021223Y030818D01*
X021219Y030822D01*
X021087Y030954D01*
X021084Y030957D01*
X021081Y030962D01*
X021079Y030967D01*
X021077Y030972D01*
X021076Y030977D01*
X021076Y030982D01*
Y031218D01*
X021076Y031223D01*
X021077Y031228D01*
X021079Y031233D01*
X021081Y031238D01*
X021084Y031243D01*
X021087Y031246D01*
X021219Y031378D01*
X021223Y031382D01*
X021228Y031385D01*
X021232Y031387D01*
X021237Y031389D01*
X021242Y03139D01*
X021248Y03139D01*
X022244D01*
X022249Y03139D01*
D02*
G37*
D47*
X031636Y032748D02*
D03*
Y030952D02*
D03*
D48*
X034175Y03185D02*
D03*
D49*
X021462Y03325D02*
D03*
X022938D02*
D03*
D50*
X026746Y0304D02*
D03*
X027554D02*
D03*
X027654Y03365D02*
D03*
X026846D02*
D03*
D51*
X02415Y0333D02*
D03*
D52*
X02915Y030796D02*
D03*
Y031604D02*
D03*
X0303Y032046D02*
D03*
Y032854D02*
D03*
X0297Y030796D02*
D03*
Y031604D02*
D03*
X02495Y030696D02*
D03*
Y031504D02*
D03*
D53*
X0372Y03345D02*
D03*
Y03245D02*
D03*
Y03165D02*
D03*
Y03065D02*
D03*
D54*
X02935Y0326D02*
D03*
X0359Y03105D02*
D03*
X0352Y0335D02*
D03*
X020504Y03065D02*
D03*
D55*
X0303Y031395D02*
D03*
Y030805D02*
D03*
D56*
X02525Y03364D02*
D03*
Y03236D02*
D03*
D57*
X024Y030409D02*
D03*
X023626Y031491D02*
D03*
X024374D02*
D03*
D58*
X024494Y0323D02*
D03*
X023806D02*
D03*
D59*
X025989Y033202D02*
D03*
D60*
Y032946D02*
D03*
Y03269D02*
D03*
Y032434D02*
D03*
Y032178D02*
D03*
Y031922D02*
D03*
Y031666D02*
D03*
Y03141D02*
D03*
Y031154D02*
D03*
Y030898D02*
D03*
X028311Y033202D02*
D03*
Y032946D02*
D03*
Y03269D02*
D03*
Y032434D02*
D03*
Y032178D02*
D03*
Y031922D02*
D03*
Y031666D02*
D03*
Y03141D02*
D03*
Y031154D02*
D03*
Y030898D02*
D03*
D61*
X022809Y031691D02*
D03*
Y030509D02*
D03*
D62*
X02273Y0311D02*
D03*
D63*
X02055Y0323D02*
D03*
Y031611D02*
D03*
D64*
X02675Y03275D02*
D03*
X0275Y0325D02*
D03*
D65*
X020504Y03335D02*
D03*
D66*
X03635Y03325D02*
D03*
X0363Y03225D02*
D03*
X03175Y0313D02*
D03*
X0222Y0323D02*
D03*
D67*
X03055Y03285D02*
D03*
X0303Y03165D02*
D03*
X03535Y03105D02*
D03*
X03555D02*
D03*
X03135Y0313D02*
D03*
X03105D02*
D03*
X02765Y0318D02*
D03*
X02705Y0312D02*
D03*
X0289Y0308D02*
D03*
X0205Y0331D02*
D03*
X020504Y03095D02*
D03*
X0205Y0336D02*
D03*
X0342D02*
D03*
X0348D02*
D03*
X0345D02*
D03*
M02*
