G04 Layer_Color=2752767*
%FSTAX24Y24*%
%MOIN*%
G70*
G01*
G75*
%ADD71C,0.0020*%
%ADD72C,0.0027*%
D71*
X03582Y03097D02*
Y03113D01*
X03598D01*
Y03097D01*
X03582D01*
X03512Y03342D02*
Y03358D01*
X03528D01*
Y03342D01*
X03512D01*
X020424Y03057D02*
Y03073D01*
X020584D01*
Y03057D01*
X020424D01*
Y03327D02*
Y03343D01*
X020584D01*
Y03327D01*
X020424D01*
X03635Y03317D02*
X03627Y03333D01*
X03643D01*
X03635Y03317D01*
X03047Y03277D02*
Y03293D01*
X03063D01*
Y03277D01*
X03047D01*
X03022Y03157D02*
Y03173D01*
X03038D01*
Y03157D01*
X03022D01*
X03527Y03097D02*
Y03113D01*
X03543D01*
Y03097D01*
X03527D01*
X03547D02*
Y03113D01*
X03563D01*
Y03097D01*
X03547D01*
X0363Y03217D02*
X03622Y03233D01*
X03638D01*
X0363Y03217D01*
X03127Y03122D02*
Y03138D01*
X03143D01*
Y03122D01*
X03127D01*
X03175D02*
X03167Y03138D01*
X03183D01*
X03175Y03122D01*
X03097D02*
Y03138D01*
X03113D01*
Y03122D01*
X03097D01*
X0222Y03222D02*
X02212Y03238D01*
X02228D01*
X0222Y03222D01*
X02765Y03172D02*
X02757Y03188D01*
X02773D01*
X02765Y03172D01*
X02705Y03112D02*
X02697Y03128D01*
X02713D01*
X02705Y03112D01*
X02882Y03072D02*
Y03088D01*
X02898D01*
Y03072D01*
X02882D01*
X02042Y03302D02*
Y03318D01*
X02058D01*
Y03302D01*
X02042D01*
X020424Y03087D02*
Y03103D01*
X020584D01*
Y03087D01*
X020424D01*
X02042Y03352D02*
Y03368D01*
X02058D01*
Y03352D01*
X02042D01*
X03412D02*
Y03368D01*
X03428D01*
Y03352D01*
X03412D01*
X03472D02*
Y03368D01*
X03488D01*
Y03352D01*
X03472D01*
X03442D02*
Y03368D01*
X03458D01*
Y03352D01*
X03442D01*
D72*
X02683Y03275D02*
G03*
X02683Y03275I-00008J0D01*
G01*
X02758Y0325D02*
G03*
X02758Y0325I-00008J0D01*
G01*
M02*
