G04 Layer_Color=16711935*
%FSTAX24Y24*%
%MOIN*%
G70*
G01*
G75*
%ADD42C,0.0100*%
%ADD69C,0.0060*%
D42*
X0159Y03395D02*
X019841D01*
X0159Y02995D02*
X019841D01*
X016Y02895D02*
Y02995D01*
Y03395D02*
Y03495D01*
X0158Y02935D02*
X016Y02995D01*
X0162Y02935D01*
X016Y03395D02*
X0162Y03455D01*
X0158D02*
X016Y03395D01*
D69*
X01528Y029191D02*
Y029391D01*
Y029291D01*
X01468D01*
X01478Y029191D01*
Y029691D02*
X01468Y029791D01*
Y029991D01*
X01478Y030091D01*
X01518D01*
X01528Y029991D01*
Y029791D01*
X01518Y029691D01*
X01478D01*
X01528Y03029D02*
X01518D01*
Y03039D01*
X01528D01*
Y03029D01*
Y03079D02*
Y03099D01*
Y03089D01*
X01468D01*
X01478Y03079D01*
X01468Y03169D02*
X01478Y03149D01*
X01498Y03129D01*
X01518D01*
X01528Y03139D01*
Y03159D01*
X01518Y03169D01*
X01508D01*
X01498Y03159D01*
Y03129D01*
X01528Y03269D02*
X01508Y03249D01*
X01488D01*
X01468Y03269D01*
X01528Y03299D02*
X01488D01*
Y03309D01*
X01498Y03319D01*
X01528D01*
X01498D01*
X01488Y03329D01*
X01498Y033389D01*
X01528D01*
Y033589D02*
X01488D01*
Y033689D01*
X01498Y033789D01*
X01528D01*
X01498D01*
X01488Y033889D01*
X01498Y033989D01*
X01528D01*
Y034189D02*
X01508Y034389D01*
X01488D01*
X01468Y034189D01*
M02*
