G04 Layer_Physical_Order=1*
G04 Layer_Color=255*
%FSTAX24Y24*%
%MOIN*%
G70*
G01*
G75*
%ADD10R,0.1181X0.0492*%
%ADD11R,0.2441X0.1496*%
%ADD12R,0.0787X0.0650*%
%ADD13R,0.0433X0.0335*%
%ADD14C,0.0591*%
%ADD15R,0.0335X0.0433*%
%ADD16R,0.0757X0.0600*%
%ADD17C,0.0787*%
%ADD18R,0.0374X0.0276*%
%ADD19R,0.0728X0.0492*%
%ADD20R,0.0236X0.0374*%
%ADD21R,0.0453X0.0551*%
%ADD22R,0.0551X0.0177*%
%ADD23O,0.0551X0.0177*%
%ADD24R,0.0551X0.0236*%
%ADD25R,0.0709X0.0236*%
%ADD26R,0.0551X0.0453*%
%ADD27C,0.0591*%
%ADD28C,0.0157*%
%ADD29C,0.0787*%
%ADD30C,0.0197*%
%ADD31C,0.0276*%
%ADD32C,0.0315*%
%ADD33C,0.0236*%
%ADD34C,0.0394*%
%ADD35C,0.0472*%
%ADD36R,0.0787X0.0787*%
%ADD37C,0.0500*%
%ADD38C,0.0441*%
G36*
X022376Y031218D02*
Y030982D01*
X022244Y03085D01*
X021248D01*
X021116Y030982D01*
Y031218D01*
X021248Y03135D01*
X022244D01*
X022376Y031218D01*
D02*
G37*
D10*
X031636Y032748D02*
D03*
Y030952D02*
D03*
D11*
X034175Y03185D02*
D03*
D12*
X021462Y03325D02*
D03*
X022938D02*
D03*
D13*
X026746Y0304D02*
D03*
X027554D02*
D03*
X027654Y03365D02*
D03*
X026846D02*
D03*
D14*
X02415Y0333D02*
D03*
D15*
X02915Y030796D02*
D03*
Y031604D02*
D03*
X0303Y032046D02*
D03*
Y032854D02*
D03*
X0297Y030796D02*
D03*
Y031604D02*
D03*
X02495Y030696D02*
D03*
Y031504D02*
D03*
D16*
X0372Y03345D02*
D03*
Y03245D02*
D03*
Y03165D02*
D03*
Y03065D02*
D03*
D17*
X02935Y0326D02*
D03*
X0359Y03105D02*
D03*
X0352Y0335D02*
D03*
X020504Y03065D02*
D03*
D18*
X0303Y031395D02*
D03*
Y030805D02*
D03*
D19*
X02525Y03364D02*
D03*
Y03236D02*
D03*
D20*
X024Y030409D02*
D03*
X023626Y031491D02*
D03*
X024374D02*
D03*
D21*
X024494Y0323D02*
D03*
X023806D02*
D03*
D22*
X025989Y033202D02*
D03*
D23*
Y032946D02*
D03*
Y03269D02*
D03*
Y032434D02*
D03*
Y032178D02*
D03*
Y031922D02*
D03*
Y031666D02*
D03*
Y03141D02*
D03*
Y031154D02*
D03*
Y030898D02*
D03*
X028311Y033202D02*
D03*
Y032946D02*
D03*
Y03269D02*
D03*
Y032434D02*
D03*
Y032178D02*
D03*
Y031922D02*
D03*
Y031666D02*
D03*
Y03141D02*
D03*
Y031154D02*
D03*
Y030898D02*
D03*
D24*
X022809Y031691D02*
D03*
Y030509D02*
D03*
D25*
X02273Y0311D02*
D03*
D26*
X02055Y0323D02*
D03*
Y031611D02*
D03*
D27*
X020554Y0333D02*
X021466D01*
X020504Y03335D02*
X020554Y0333D01*
X022943Y031843D02*
Y0335D01*
D28*
X03635Y03325D02*
X0367D01*
X0369Y03345D01*
X0372D01*
X02545Y0316D02*
X02564Y03141D01*
X025989D01*
X0297Y030796D02*
X029708Y030805D01*
X0303D01*
X028311Y031922D02*
X028832D01*
X02915Y031604D01*
X02935Y0324D02*
Y0326D01*
X02915Y0322D02*
X02935Y0324D01*
X02915Y031604D02*
Y0322D01*
X0297Y03135D02*
Y031604D01*
X02955Y0312D02*
X0297Y03135D01*
X028945Y0312D02*
X02955D01*
X028744Y0314D02*
X028945Y0312D01*
X028321Y0314D02*
X028744D01*
X028311Y03141D02*
X028321Y0314D01*
X025532Y032178D02*
X025989D01*
X02415Y0333D02*
X02455Y0337D01*
X025217D01*
X028311Y033202D02*
X030152D01*
X0303Y033054D01*
X026434Y032434D02*
X02675Y03275D01*
X025989Y032434D02*
X026434D01*
X0275Y0325D02*
X0276D01*
X02779Y03269D01*
X028311D01*
X024374Y031491D02*
X024938D01*
X025498Y030898D02*
X025989D01*
X02495Y030696D02*
X025296D01*
X025498Y030898D01*
X026396Y031154D02*
X02675Y0308D01*
X025989Y031154D02*
X026396D01*
X025989Y031666D02*
X026834D01*
X02705Y0312D02*
Y03145D01*
X026834Y031666D02*
X02705Y03145D01*
X02525Y03195D02*
X02545Y03175D01*
Y0316D02*
Y03175D01*
X025217Y0337D02*
X02525Y033733D01*
X024544Y032006D02*
X0246Y03195D01*
X02525D01*
X024544Y032006D02*
Y0323D01*
X02525Y03246D02*
X025532Y032178D01*
D29*
X0341Y03185D02*
X0349Y03105D01*
X03535D02*
X03555D01*
X0349D02*
X03535D01*
X03555D02*
X0359D01*
D30*
X0303Y032046D02*
Y032246D01*
Y03165D02*
Y032046D01*
Y031395D02*
Y03165D01*
X025989Y033202D02*
Y033539D01*
D31*
X0312Y0337D02*
X031561Y033339D01*
X027654Y0337D02*
X0312D01*
X031561Y032748D02*
Y033339D01*
D32*
X037Y03225D02*
X0372Y03245D01*
X0363Y03225D02*
X037D01*
X023626Y030526D02*
Y031491D01*
X023641D01*
X023806Y031656D01*
Y0323D01*
X02055D02*
X0222D01*
X024938Y031491D02*
X02495Y031504D01*
X020504Y03065D02*
Y03095D01*
X022931Y03045D02*
X02355D01*
X023626Y030526D01*
X020504Y03095D02*
Y031654D01*
X02235Y0311D02*
X02273D01*
X0222Y03125D02*
X02235Y0311D01*
X0222Y03125D02*
Y0323D01*
X0372Y03155D02*
Y03165D01*
Y03245D01*
D33*
X024Y030409D02*
X024153Y030256D01*
X026652D02*
X026746Y03035D01*
X027554Y030333D02*
Y03035D01*
X025989Y033539D02*
X026144Y033694D01*
X02765Y0311D02*
Y0318D01*
X024153Y030256D02*
X026652D01*
X02675Y0308D02*
X026767Y030783D01*
X027333D01*
X02765Y0311D01*
X026144Y033694D02*
X026846D01*
X036983Y030333D02*
X0372Y03055D01*
X027554Y030333D02*
X036983D01*
D34*
X020504Y03065D02*
X020704Y03045D01*
X022931D01*
D35*
X02675Y03275D02*
D03*
X0275Y0325D02*
D03*
D36*
X020504Y03335D02*
D03*
D37*
X03635Y03325D02*
D03*
X0363Y03225D02*
D03*
X03175Y0313D02*
D03*
X0222Y0323D02*
D03*
D38*
X03055Y03285D02*
D03*
X0303Y03165D02*
D03*
X03535Y03105D02*
D03*
X03555D02*
D03*
X03135Y0313D02*
D03*
X03105D02*
D03*
X02765Y0318D02*
D03*
X02705Y0312D02*
D03*
X0289Y0308D02*
D03*
X0205Y0331D02*
D03*
X020504Y03095D02*
D03*
X0205Y0336D02*
D03*
X0342D02*
D03*
X0348D02*
D03*
X0345D02*
D03*
M02*
