G04 Layer_Physical_Order=2*
G04 Layer_Color=16711680*
%FSTAX24Y24*%
%MOIN*%
G70*
G01*
G75*
%ADD17C,0.0787*%
%ADD28C,0.0157*%
%ADD29C,0.0787*%
%ADD32C,0.0315*%
%ADD35C,0.0472*%
%ADD36R,0.0787X0.0787*%
%ADD37C,0.0500*%
%ADD38C,0.0441*%
%ADD39C,0.0984*%
%ADD40C,0.0866*%
D17*
X0359Y03105D02*
D03*
X0352Y0335D02*
D03*
X020504Y03065D02*
D03*
D28*
X03595Y03285D02*
X03635Y03325D01*
X03055Y03285D02*
X03595D01*
D29*
X0205Y0335D02*
X0352D01*
D32*
X02925Y03225D02*
X0363D01*
X02895Y03195D02*
X02925Y03225D01*
X0222Y0323D02*
X022222Y032278D01*
X026722D01*
X02705Y03195D01*
X02895D01*
D35*
X02675Y03275D02*
D03*
X0275Y0325D02*
D03*
D36*
X020504Y03335D02*
D03*
D37*
X03635Y03325D02*
D03*
X0363Y03225D02*
D03*
X03175Y0313D02*
D03*
X0222Y0323D02*
D03*
D38*
X03055Y03285D02*
D03*
X0303Y03165D02*
D03*
X03535Y03105D02*
D03*
X03555D02*
D03*
X03135Y0313D02*
D03*
X03105D02*
D03*
X02765Y0318D02*
D03*
X02705Y0312D02*
D03*
X0289Y0308D02*
D03*
X0205Y0331D02*
D03*
X020504Y03095D02*
D03*
X0205Y0336D02*
D03*
X0342D02*
D03*
X0348D02*
D03*
X0345D02*
D03*
D39*
X03135Y0313D02*
X03175D01*
X03105D02*
X03135D01*
X020504Y03065D02*
X0293D01*
X02995Y0313D02*
X03105D01*
D40*
X0293Y03065D02*
X02995Y0313D01*
M02*
