G04 Layer_Color=255*
%FSTAX24Y24*%
%MOIN*%
G70*
G01*
G75*
%ADD10R,0.1181X0.0492*%
%ADD11R,0.2441X0.1496*%
%ADD12R,0.0787X0.0650*%
%ADD13R,0.0433X0.0335*%
%ADD14C,0.0591*%
%ADD15R,0.0335X0.0433*%
%ADD16R,0.0757X0.0600*%
%ADD17C,0.0787*%
%ADD18R,0.0374X0.0276*%
%ADD19R,0.0728X0.0492*%
%ADD20R,0.0236X0.0374*%
%ADD21R,0.0453X0.0551*%
%ADD22R,0.0551X0.0177*%
%ADD23O,0.0551X0.0177*%
%ADD24R,0.0551X0.0236*%
%ADD25R,0.0709X0.0236*%
%ADD26R,0.0551X0.0453*%
%ADD35C,0.0472*%
%ADD36R,0.0787X0.0787*%
D10*
X031636Y032748D02*
D03*
Y030952D02*
D03*
D11*
X034175Y03185D02*
D03*
D12*
X021462Y03325D02*
D03*
X022938D02*
D03*
D13*
X026746Y0304D02*
D03*
X027554D02*
D03*
X027654Y03365D02*
D03*
X026846D02*
D03*
D14*
X02415Y0333D02*
D03*
D15*
X02915Y030796D02*
D03*
Y031604D02*
D03*
X0303Y032046D02*
D03*
Y032854D02*
D03*
X0297Y030796D02*
D03*
Y031604D02*
D03*
X02495Y030696D02*
D03*
Y031504D02*
D03*
D16*
X0372Y03345D02*
D03*
Y03245D02*
D03*
Y03165D02*
D03*
Y03065D02*
D03*
D17*
X02935Y0326D02*
D03*
X0359Y03105D02*
D03*
X0352Y0335D02*
D03*
X020504Y03065D02*
D03*
D18*
X0303Y031395D02*
D03*
Y030805D02*
D03*
D19*
X02525Y03364D02*
D03*
Y03236D02*
D03*
D20*
X024Y030409D02*
D03*
X023626Y031491D02*
D03*
X024374D02*
D03*
D21*
X024494Y0323D02*
D03*
X023806D02*
D03*
D22*
X025989Y033202D02*
D03*
D23*
Y032946D02*
D03*
Y03269D02*
D03*
Y032434D02*
D03*
Y032178D02*
D03*
Y031922D02*
D03*
Y031666D02*
D03*
Y03141D02*
D03*
Y031154D02*
D03*
Y030898D02*
D03*
X028311Y033202D02*
D03*
Y032946D02*
D03*
Y03269D02*
D03*
Y032434D02*
D03*
Y032178D02*
D03*
Y031922D02*
D03*
Y031666D02*
D03*
Y03141D02*
D03*
Y031154D02*
D03*
Y030898D02*
D03*
D24*
X022809Y031691D02*
D03*
Y030509D02*
D03*
D25*
X02273Y0311D02*
D03*
D26*
X02055Y0323D02*
D03*
Y031611D02*
D03*
D35*
X02675Y03275D02*
D03*
X0275Y0325D02*
D03*
D36*
X020504Y03335D02*
D03*
M02*
