G04 Layer_Color=16711935*
%FSTAX24Y24*%
%MOIN*%
G70*
G01*
G75*
%ADD43C,0.0039*%
D43*
X026815Y032995D02*
G03*
X026815Y032995I-000197J0D01*
G01*
X022426Y030568D02*
G03*
X022426Y030568I-000197J0D01*
G01*
X032443Y030551D02*
Y033149D01*
X034844Y030551D02*
Y033149D01*
X032443D02*
X034844D01*
X032443Y030551D02*
X034844D01*
X021294Y033821D02*
X023106D01*
X021294Y032679D02*
X023106D01*
X021294D02*
Y033821D01*
X023106Y032679D02*
Y033821D01*
X026638Y030243D02*
Y030557D01*
X027662Y030243D02*
Y030557D01*
X026638D02*
X027662D01*
X026638Y030243D02*
X027662D01*
X028993Y030688D02*
X029307D01*
X028993Y031712D02*
X029307D01*
X028993Y030688D02*
Y031712D01*
X029307Y030688D02*
Y031712D01*
X030143Y031938D02*
X030457D01*
X030143Y032962D02*
X030457D01*
X030143Y031938D02*
Y032962D01*
X030457Y031938D02*
Y032962D01*
X029543Y030688D02*
X029857D01*
X029543Y031712D02*
X029857D01*
X029543Y030688D02*
Y031712D01*
X029857Y030688D02*
Y031712D01*
X030143Y031454D02*
X030457D01*
X030143Y030746D02*
X030457D01*
Y031454D01*
X030143Y030746D02*
Y031454D01*
X027762Y033493D02*
Y033807D01*
X026738Y033493D02*
Y033807D01*
Y033493D02*
X027762D01*
X026738Y033807D02*
X027762D01*
X024915Y033728D02*
X025585D01*
X024915Y032272D02*
X025585D01*
Y033728D01*
X024915Y032272D02*
Y033728D01*
X024793Y030588D02*
X025107D01*
X024793Y031612D02*
X025107D01*
X024793Y030588D02*
Y031612D01*
X025107Y030588D02*
Y031612D01*
X023402Y030596D02*
Y031304D01*
X024598Y030596D02*
Y031304D01*
X023402Y030596D02*
X024598D01*
X023402Y031304D02*
X024598D01*
X023717Y032034D02*
X024583D01*
X023717Y032566D02*
X024583D01*
Y032034D02*
Y032566D01*
X023717Y032034D02*
Y032566D01*
X026264Y030751D02*
Y033349D01*
X028036Y030751D02*
Y033349D01*
X026264D02*
X028036D01*
X026264Y030751D02*
X028036D01*
X021579Y032006D02*
X022603D01*
X021579Y030194D02*
X022603D01*
X021579D02*
Y032006D01*
X022603Y030194D02*
Y032006D01*
X020816Y031522D02*
Y032389D01*
X020284Y031522D02*
Y032389D01*
X020816D01*
X020284Y031522D02*
X020816D01*
M02*
