G04 Layer_Physical_Order=1*
G04 Layer_Color=255*
%FSTAX24Y24*%
%MOIN*%
G70*
G01*
G75*
%ADD10R,0.0623X0.0718*%
%ADD11R,0.0718X0.0718*%
%ADD12R,0.0787X0.0650*%
%ADD13R,0.0551X0.0236*%
%ADD14R,0.0709X0.0236*%
%ADD15R,0.0236X0.0374*%
%ADD16R,0.0551X0.0453*%
%ADD17R,0.0453X0.0551*%
%ADD18C,0.0787*%
%ADD19R,0.0433X0.0335*%
%ADD20R,0.0551X0.0177*%
%ADD21O,0.0551X0.0177*%
%ADD22R,0.0335X0.0433*%
%ADD23R,0.0374X0.0276*%
%ADD24R,0.1181X0.0492*%
%ADD25R,0.2441X0.1496*%
%ADD26C,0.1181*%
%ADD27C,0.0236*%
%ADD28C,0.0472*%
%ADD29C,0.0157*%
%ADD30C,0.0591*%
%ADD31C,0.0315*%
%ADD32C,0.0197*%
%ADD33C,0.0394*%
%ADD34C,0.0276*%
%ADD35C,0.0600*%
%ADD36R,0.0709X0.1181*%
%ADD37R,0.0709X0.1575*%
%ADD38R,0.1378X0.0709*%
%ADD39R,0.1575X0.0709*%
%ADD40C,0.0500*%
%ADD41C,0.0394*%
G36*
X02328Y031318D02*
Y031082D01*
X023148Y03095D01*
X022152D01*
X02202Y031082D01*
Y031318D01*
X022152Y03145D01*
X023148D01*
X02328Y031318D01*
D02*
G37*
D10*
X03175Y033D02*
D03*
X0342Y03095D02*
D03*
D11*
X03415Y033D02*
D03*
X0318Y03095D02*
D03*
D12*
X022362Y0331D02*
D03*
X023838D02*
D03*
D13*
X023713Y031791D02*
D03*
Y030609D02*
D03*
D14*
X023634Y0312D02*
D03*
D15*
X0251Y030459D02*
D03*
X024726Y031541D02*
D03*
X025474D02*
D03*
D16*
X0247Y032594D02*
D03*
Y031906D02*
D03*
D17*
X026194Y03225D02*
D03*
X025506D02*
D03*
D18*
X026Y0332D02*
D03*
X0303Y0323D02*
D03*
D19*
X028904Y0336D02*
D03*
X028096D02*
D03*
X030954Y03305D02*
D03*
X030146D02*
D03*
X027996Y0304D02*
D03*
X028804D02*
D03*
D20*
X027139Y033152D02*
D03*
D21*
Y032896D02*
D03*
Y03264D02*
D03*
Y032384D02*
D03*
Y032128D02*
D03*
Y031872D02*
D03*
Y031616D02*
D03*
Y03136D02*
D03*
Y031104D02*
D03*
Y030848D02*
D03*
X029461Y033152D02*
D03*
Y032896D02*
D03*
Y03264D02*
D03*
Y032384D02*
D03*
Y032128D02*
D03*
Y031872D02*
D03*
Y031616D02*
D03*
Y03136D02*
D03*
Y031104D02*
D03*
Y030848D02*
D03*
D22*
X0261Y030746D02*
D03*
Y031554D02*
D03*
X03025Y031554D02*
D03*
Y030746D02*
D03*
D23*
X0308Y030905D02*
D03*
Y031495D02*
D03*
D24*
X035336Y032598D02*
D03*
Y030802D02*
D03*
D25*
X037875Y0317D02*
D03*
D26*
X038472Y030678D02*
X038922D01*
X038972Y030728D01*
X037875Y031275D02*
X038472Y030678D01*
X037875Y0317D02*
Y0318D01*
Y031275D02*
Y0317D01*
D27*
X03175Y03045D02*
Y03095D01*
X028898Y030206D02*
X031506D01*
X03175Y03045D01*
X028804Y0303D02*
X028898Y030206D01*
X025303Y030256D02*
X027952D01*
X027996Y0303D01*
X0251Y030459D02*
X025303Y030256D01*
D28*
X021604Y0305D02*
X02375D01*
X023838Y0331D02*
X023843Y033104D01*
X0232Y032462D02*
X023838Y0331D01*
X0232Y0321D02*
Y032462D01*
X023509Y031791D02*
X023713D01*
X0232Y0321D02*
X023509Y031791D01*
X021404Y0307D02*
X021604Y0305D01*
D29*
X0273Y03365D02*
X028096D01*
X0308Y0306D02*
Y030905D01*
X024394Y032594D02*
X0247D01*
X02425Y03245D02*
X024394Y032594D01*
X02425Y03135D02*
Y03245D01*
X029741Y03136D02*
X03Y031101D01*
Y030946D02*
Y031101D01*
Y030946D02*
X0302Y030746D01*
X030792Y031554D02*
X03085Y031495D01*
X029461Y03136D02*
X029741D01*
X026648Y030848D02*
X027139D01*
X026546Y030746D02*
X026648Y030848D01*
X0261Y030746D02*
X026546D01*
X027496Y031104D02*
X0276Y031D01*
X027139Y031104D02*
X027496D01*
X02669Y03136D02*
X027139D01*
X02655Y0315D02*
X02669Y03136D01*
X027139Y031616D02*
X027784D01*
X0282Y0312D01*
X02665Y0325D02*
Y03295D01*
Y0325D02*
X026766Y032384D01*
X027139D01*
X02655Y0315D02*
Y031894D01*
X026194Y03225D02*
X02655Y031894D01*
X02996Y03264D02*
X0303Y0323D01*
X029461Y03264D02*
X02996D01*
X030146Y03305D02*
X030476Y033379D01*
X029461Y033152D02*
X030045D01*
X027139D02*
Y033489D01*
X026088Y031541D02*
X0261Y031554D01*
X025474Y031541D02*
X026088D01*
X02275Y0312D02*
X023634D01*
X0303Y031554D02*
X030792D01*
X031321Y033379D02*
X0317Y033D01*
X030476Y033379D02*
X031321D01*
X030045Y033152D02*
X030146Y03305D01*
X027139Y033489D02*
X0273Y03365D01*
X0264Y0332D02*
X02665Y03295D01*
X026Y0332D02*
X0264D01*
X0241Y0312D02*
X02425Y03135D01*
X023634Y0312D02*
X0241D01*
D30*
X022312Y03305D02*
X022362Y0331D01*
X02135Y03305D02*
X022312D01*
D31*
X0341Y031D02*
Y033D01*
Y031D02*
X03415Y03095D01*
X035336Y032798D02*
Y033414D01*
X024459Y030609D02*
X024726Y030876D01*
X023713Y030609D02*
X024459D01*
X024726Y030876D02*
Y031541D01*
X025506Y032156D02*
Y03225D01*
D32*
X025161Y031906D02*
X025506Y03225D01*
X0247Y031906D02*
X025161D01*
X031164Y031064D02*
Y032839D01*
X031005Y030905D02*
X031164Y031064D01*
X0308Y030905D02*
X031005D01*
X0276Y031D02*
X0279Y0307D01*
X02865D01*
X02875Y0308D01*
Y0319D01*
X0287Y03195D02*
X02875Y0319D01*
X030954Y03305D02*
X031164Y032839D01*
D33*
X02245Y0315D02*
Y03195D01*
Y0315D02*
X02275Y0312D01*
D34*
X035076Y033674D02*
X035336Y033414D01*
X028904Y03365D02*
X028928Y033674D01*
X035076D01*
D35*
X0282Y0312D02*
D03*
X0287Y03195D02*
D03*
D36*
X02135Y03305D02*
D03*
D37*
Y0309D02*
D03*
D38*
X03875Y0305D02*
D03*
D39*
X0387Y03345D02*
D03*
D40*
X0358Y03035D02*
D03*
X02245Y03195D02*
D03*
X039Y03335D02*
D03*
X0393Y03355D02*
D03*
X03855D02*
D03*
X03825D02*
D03*
X03405Y03195D02*
D03*
D41*
X0308Y0306D02*
D03*
M02*
