G04 Layer_Color=16711935*
%FSTAX24Y24*%
%MOIN*%
G70*
G01*
G75*
%ADD46C,0.0039*%
D46*
X02333Y030668D02*
G03*
X02333Y030668I-000197J0D01*
G01*
X027965Y032945D02*
G03*
X027965Y032945I-000197J0D01*
G01*
X022194Y033671D02*
X024006D01*
X022194Y032529D02*
X024006D01*
X022194D02*
Y033671D01*
X024006Y032529D02*
Y033671D01*
X022484Y032106D02*
X023507D01*
X022484Y030294D02*
X023507D01*
X022484D02*
Y032106D01*
X023507Y030294D02*
Y032106D01*
X024502Y030646D02*
Y031354D01*
X025698Y030646D02*
Y031354D01*
X024502Y030646D02*
X025698D01*
X024502Y031354D02*
X025698D01*
X024966Y031817D02*
Y032683D01*
X024434Y031817D02*
Y032683D01*
X024966D01*
X024434Y031817D02*
X024966D01*
X025417Y031984D02*
X026283D01*
X025417Y032516D02*
X026283D01*
Y031984D02*
Y032516D01*
X025417Y031984D02*
Y032516D01*
X029012Y033443D02*
Y033757D01*
X027988Y033443D02*
Y033757D01*
Y033443D02*
X029012D01*
X027988Y033757D02*
X029012D01*
X027414Y030701D02*
Y033299D01*
X029186Y030701D02*
Y033299D01*
X027414D02*
X029186D01*
X027414Y030701D02*
X029186D01*
X025943Y030638D02*
X026257D01*
X025943Y031662D02*
X026257D01*
X025943Y030638D02*
Y031662D01*
X026257Y030638D02*
Y031662D01*
X031062Y032893D02*
Y033207D01*
X030038Y032893D02*
Y033207D01*
Y032893D02*
X031062D01*
X030038Y033207D02*
X031062D01*
X030093Y031662D02*
X030407D01*
X030093Y030638D02*
X030407D01*
Y031662D01*
X030093Y030638D02*
Y031662D01*
X030643Y030846D02*
X030957D01*
X030643Y031554D02*
X030957D01*
X030643Y030846D02*
Y031554D01*
X030957Y030846D02*
Y031554D01*
X036143Y030401D02*
Y032999D01*
X038544Y030401D02*
Y032999D01*
X036143D02*
X038544D01*
X036143Y030401D02*
X038544D01*
X027888Y030243D02*
Y030557D01*
X028912Y030243D02*
Y030557D01*
X027888D02*
X028912D01*
X027888Y030243D02*
X028912D01*
M02*
