G04 Layer_Color=255*
%FSTAX24Y24*%
%MOIN*%
G70*
G01*
G75*
%ADD10R,0.0623X0.0718*%
%ADD11R,0.0718X0.0718*%
%ADD12R,0.0787X0.0650*%
%ADD13R,0.0551X0.0236*%
%ADD14R,0.0709X0.0236*%
%ADD15R,0.0236X0.0374*%
%ADD16R,0.0551X0.0453*%
%ADD17R,0.0453X0.0551*%
%ADD18C,0.0787*%
%ADD19R,0.0433X0.0335*%
%ADD20R,0.0551X0.0177*%
%ADD21O,0.0551X0.0177*%
%ADD22R,0.0335X0.0433*%
%ADD23R,0.0374X0.0276*%
%ADD24R,0.1181X0.0492*%
%ADD25R,0.2441X0.1496*%
%ADD35C,0.0600*%
%ADD36R,0.0709X0.1181*%
%ADD37R,0.0709X0.1575*%
%ADD38R,0.1378X0.0709*%
%ADD39R,0.1575X0.0709*%
D10*
X03175Y033D02*
D03*
X0342Y03095D02*
D03*
D11*
X03415Y033D02*
D03*
X0318Y03095D02*
D03*
D12*
X022362Y0331D02*
D03*
X023838D02*
D03*
D13*
X023713Y031791D02*
D03*
Y030609D02*
D03*
D14*
X023634Y0312D02*
D03*
D15*
X0251Y030459D02*
D03*
X024726Y031541D02*
D03*
X025474D02*
D03*
D16*
X0247Y032594D02*
D03*
Y031906D02*
D03*
D17*
X026194Y03225D02*
D03*
X025506D02*
D03*
D18*
X026Y0332D02*
D03*
X0303Y0323D02*
D03*
D19*
X028904Y0336D02*
D03*
X028096D02*
D03*
X030954Y03305D02*
D03*
X030146D02*
D03*
X027996Y0304D02*
D03*
X028804D02*
D03*
D20*
X027139Y033152D02*
D03*
D21*
Y032896D02*
D03*
Y03264D02*
D03*
Y032384D02*
D03*
Y032128D02*
D03*
Y031872D02*
D03*
Y031616D02*
D03*
Y03136D02*
D03*
Y031104D02*
D03*
Y030848D02*
D03*
X029461Y033152D02*
D03*
Y032896D02*
D03*
Y03264D02*
D03*
Y032384D02*
D03*
Y032128D02*
D03*
Y031872D02*
D03*
Y031616D02*
D03*
Y03136D02*
D03*
Y031104D02*
D03*
Y030848D02*
D03*
D22*
X0261Y030746D02*
D03*
Y031554D02*
D03*
X03025Y031554D02*
D03*
Y030746D02*
D03*
D23*
X0308Y030905D02*
D03*
Y031495D02*
D03*
D24*
X035336Y032598D02*
D03*
Y030802D02*
D03*
D25*
X037875Y0317D02*
D03*
D35*
X0282Y0312D02*
D03*
X0287Y03195D02*
D03*
D36*
X02135Y03305D02*
D03*
D37*
Y0309D02*
D03*
D38*
X03875Y0305D02*
D03*
D39*
X0387Y03345D02*
D03*
M02*
