G04 Layer_Color=32768*
%FSTAX24Y24*%
%MOIN*%
G70*
G01*
G75*
%ADD46C,0.0039*%
%ADD74C,0.0020*%
D46*
X0231Y032903D02*
Y033297D01*
X022903Y0331D02*
X023297D01*
X022995Y031003D02*
Y031397D01*
X022799Y0312D02*
X023192D01*
X024903Y031D02*
X025297D01*
X0251Y030803D02*
Y031197D01*
X024503Y03225D02*
X024897D01*
X0247Y032053D02*
Y032447D01*
X02585Y032053D02*
Y032447D01*
X025653Y03225D02*
X026047D01*
X028343Y0336D02*
X028657D01*
X0285Y033443D02*
Y033757D01*
X028103Y032D02*
X028497D01*
X0283Y031803D02*
Y032197D01*
X0261Y030993D02*
Y031307D01*
X025943Y03115D02*
X026257D01*
X030393Y03305D02*
X030707D01*
X03055Y032893D02*
Y033207D01*
X03025Y030993D02*
Y031307D01*
X030093Y03115D02*
X030407D01*
X0308Y031043D02*
Y031357D01*
X030643Y0312D02*
X030957D01*
X036753Y0317D02*
X037147D01*
X03695Y031503D02*
Y031897D01*
X028243Y0304D02*
X028557D01*
X0284Y030243D02*
Y030557D01*
D74*
X021919Y03373D02*
X024281D01*
X021919Y03247D02*
X024281D01*
X021919D02*
Y03373D01*
X024281Y03247D02*
Y03373D01*
X021922Y032204D02*
X024087D01*
X021922Y030196D02*
X024087D01*
X021922D02*
Y032204D01*
X024087Y030196D02*
Y032204D01*
X024411Y030173D02*
Y031827D01*
X025789Y030173D02*
Y031827D01*
X024411Y030173D02*
X025789D01*
X024411Y031827D02*
X025789D01*
X025074Y031581D02*
Y032919D01*
X024326Y031581D02*
Y032919D01*
X025074D01*
X024326Y031581D02*
X025074D01*
X025181Y031876D02*
X026519D01*
X025181Y032624D02*
X026519D01*
Y031876D02*
Y032624D01*
X025181Y031876D02*
Y032624D01*
X0292Y033324D02*
Y033876D01*
X0278Y033324D02*
Y033876D01*
Y033324D02*
X0292D01*
X0278Y033876D02*
X0292D01*
X026765Y030602D02*
Y033398D01*
X029835Y030602D02*
Y033398D01*
X026765D02*
X029835D01*
X026765Y030602D02*
X029835D01*
X025824Y03045D02*
X026376D01*
X025824Y03185D02*
X026376D01*
X025824Y03045D02*
Y03185D01*
X026376Y03045D02*
Y03185D01*
X03125Y032774D02*
Y033326D01*
X02985Y032774D02*
Y033326D01*
Y032774D02*
X03125D01*
X02985Y033326D02*
X03125D01*
X029974Y03185D02*
X030526D01*
X029974Y03045D02*
X030526D01*
Y03185D01*
X029974Y03045D02*
Y03185D01*
X030505Y030668D02*
X031095D01*
X030505Y031732D02*
X031095D01*
X030505Y030668D02*
Y031732D01*
X031095Y030668D02*
Y031732D01*
X034667Y030302D02*
Y033098D01*
X039233Y030302D02*
Y033098D01*
X034667D02*
X039233D01*
X034667Y030302D02*
X039233D01*
X0277Y030124D02*
Y030676D01*
X0291Y030124D02*
Y030676D01*
X0277D02*
X0291D01*
X0277Y030124D02*
X0291D01*
M02*
