G04 Layer_Color=2752767*
%FSTAX24Y24*%
%MOIN*%
G70*
G01*
G75*
%ADD75C,0.0020*%
%ADD76C,0.0027*%
D75*
X02812Y03112D02*
Y03128D01*
X02828D01*
Y03112D01*
X02812D01*
X02862Y03187D02*
Y03203D01*
X02878D01*
Y03187D01*
X02862D01*
X02135Y03082D02*
X02127Y03098D01*
X02143D01*
X02135Y03082D01*
X03875Y03042D02*
X03867Y03058D01*
X03883D01*
X03875Y03042D01*
X0387Y03337D02*
X03862Y03353D01*
X03878D01*
X0387Y03337D01*
X0358Y03027D02*
X03584Y03031D01*
X03588D01*
X03584Y03035D01*
X03588Y03039D01*
X03584D01*
X0358Y03043D01*
X03576Y03039D01*
X03572D01*
X03576Y03035D01*
X03572Y03031D01*
X03576D01*
X0358Y03027D01*
X0308Y03052D02*
X03072Y03068D01*
X03088D01*
X0308Y03052D01*
X02245Y03187D02*
X02249Y03191D01*
X02253D01*
X02249Y03195D01*
X02253Y03199D01*
X02249D01*
X02245Y03203D01*
X02241Y03199D01*
X02237D01*
X02241Y03195D01*
X02237Y03191D01*
X02241D01*
X02245Y03187D01*
X039Y03327D02*
X03904Y03331D01*
X03908D01*
X03904Y03335D01*
X03908Y03339D01*
X03904D01*
X039Y03343D01*
X03896Y03339D01*
X03892D01*
X03896Y03335D01*
X03892Y03331D01*
X03896D01*
X039Y03327D01*
X0393Y03347D02*
X03934Y03351D01*
X03938D01*
X03934Y03355D01*
X03938Y03359D01*
X03934D01*
X0393Y03363D01*
X03926Y03359D01*
X03922D01*
X03926Y03355D01*
X03922Y03351D01*
X03926D01*
X0393Y03347D01*
X03855D02*
X03859Y03351D01*
X03863D01*
X03859Y03355D01*
X03863Y03359D01*
X03859D01*
X03855Y03363D01*
X03851Y03359D01*
X03847D01*
X03851Y03355D01*
X03847Y03351D01*
X03851D01*
X03855Y03347D01*
X03825D02*
X03829Y03351D01*
X03833D01*
X03829Y03355D01*
X03833Y03359D01*
X03829D01*
X03825Y03363D01*
X03821Y03359D01*
X03817D01*
X03821Y03355D01*
X03817Y03351D01*
X03821D01*
X03825Y03347D01*
X03405Y03187D02*
X03409Y03191D01*
X03413D01*
X03409Y03195D01*
X03413Y03199D01*
X03409D01*
X03405Y03203D01*
X03401Y03199D01*
X03397D01*
X03401Y03195D01*
X03397Y03191D01*
X03401D01*
X03405Y03187D01*
D76*
X02143Y03305D02*
G03*
X02143Y03305I-00008J0D01*
G01*
M02*
