G04 Layer_Color=16711935*
%FSTAX24Y24*%
%MOIN*%
G70*
G01*
G75*
%ADD44C,0.0100*%
%ADD73C,0.0060*%
D44*
X0397Y0272D02*
Y029791D01*
X02085Y0272D02*
Y029791D01*
X032974Y0273D02*
X0397D01*
X02085D02*
X027256D01*
X0391Y0275D02*
X0397Y0273D01*
X0391Y0271D02*
X0397Y0273D01*
X02085D02*
X02145Y0271D01*
X02085Y0273D02*
X02145Y0275D01*
X0159Y03395D02*
X020691D01*
X0159Y02995D02*
X020691D01*
X016Y02895D02*
Y02995D01*
Y03395D02*
Y03495D01*
X0158Y02935D02*
X016Y02995D01*
X0162Y02935D01*
X016Y03395D02*
X0162Y03455D01*
X0158D02*
X016Y03395D01*
D73*
X027716Y02694D02*
Y02754D01*
X027416Y02724D01*
X027816D01*
X028016Y02754D02*
X028416D01*
Y02744D01*
X028016Y02704D01*
Y02694D01*
X028615D02*
Y02704D01*
X028715D01*
Y02694D01*
X028615D01*
X029115Y02744D02*
X029215Y02754D01*
X029415D01*
X029515Y02744D01*
Y02734D01*
X029415Y02724D01*
X029515Y02714D01*
Y02704D01*
X029415Y02694D01*
X029215D01*
X029115Y02704D01*
Y02714D01*
X029215Y02724D01*
X029115Y02734D01*
Y02744D01*
X029215Y02724D02*
X029415D01*
X029715Y02744D02*
X029815Y02754D01*
X030015D01*
X030115Y02744D01*
Y02734D01*
X030015Y02724D01*
X030115Y02714D01*
Y02704D01*
X030015Y02694D01*
X029815D01*
X029715Y02704D01*
Y02714D01*
X029815Y02724D01*
X029715Y02734D01*
Y02744D01*
X029815Y02724D02*
X030015D01*
X031115Y02694D02*
X030915Y02714D01*
Y02734D01*
X031115Y02754D01*
X031415Y02694D02*
Y02734D01*
X031515D01*
X031615Y02724D01*
Y02694D01*
Y02724D01*
X031714Y02734D01*
X031814Y02724D01*
Y02694D01*
X032014D02*
Y02734D01*
X032114D01*
X032214Y02724D01*
Y02694D01*
Y02724D01*
X032314Y02734D01*
X032414Y02724D01*
Y02694D01*
X032614D02*
X032814Y02714D01*
Y02734D01*
X032614Y02754D01*
X01528Y029191D02*
Y029391D01*
Y029291D01*
X01468D01*
X01478Y029191D01*
Y029691D02*
X01468Y029791D01*
Y029991D01*
X01478Y030091D01*
X01518D01*
X01528Y029991D01*
Y029791D01*
X01518Y029691D01*
X01478D01*
X01528Y03029D02*
X01518D01*
Y03039D01*
X01528D01*
Y03029D01*
Y03079D02*
Y03099D01*
Y03089D01*
X01468D01*
X01478Y03079D01*
X01468Y03169D02*
X01478Y03149D01*
X01498Y03129D01*
X01518D01*
X01528Y03139D01*
Y03159D01*
X01518Y03169D01*
X01508D01*
X01498Y03159D01*
Y03129D01*
X01528Y03269D02*
X01508Y03249D01*
X01488D01*
X01468Y03269D01*
X01528Y03299D02*
X01488D01*
Y03309D01*
X01498Y03319D01*
X01528D01*
X01498D01*
X01488Y03329D01*
X01498Y033389D01*
X01528D01*
Y033589D02*
X01488D01*
Y033689D01*
X01498Y033789D01*
X01528D01*
X01498D01*
X01488Y033889D01*
X01498Y033989D01*
X01528D01*
Y034189D02*
X01508Y034389D01*
X01488D01*
X01468Y034189D01*
M02*
