G04 Layer_Physical_Order=2*
G04 Layer_Color=16711680*
%FSAX24Y24*%
%MOIN*%
G70*
G01*
G75*
%ADD16R,0.0236X0.0374*%
%ADD20C,0.0100*%
%ADD21C,0.0079*%
%ADD22C,0.0197*%
%ADD23C,0.0472*%
%ADD24C,0.0787*%
%ADD25C,0.0600*%
%ADD26C,0.0315*%
%ADD27R,0.0551X0.0236*%
%ADD28R,0.0709X0.0236*%
%ADD29R,0.0787X0.0650*%
%ADD30R,0.0551X0.0453*%
%ADD31C,0.0472*%
%ADD32C,0.0512*%
%ADD33C,0.0394*%
G36*
X025926Y031497D02*
X025954Y031474D01*
X025967Y031465D01*
X025981Y031457D01*
X025994Y031451D01*
X026008Y031446D01*
X026021Y031442D01*
X026034Y031440D01*
X026047Y031439D01*
Y031361D01*
X026034Y031360D01*
X026021Y031358D01*
X026008Y031354D01*
X025994Y031349D01*
X025981Y031343D01*
X025967Y031335D01*
X025954Y031326D01*
X025940Y031315D01*
X025926Y031303D01*
X025912Y031290D01*
Y031510D01*
X025926Y031497D01*
D02*
G37*
G36*
X026210Y031363D02*
X026210Y031374D01*
X026208Y031382D01*
X026206Y031388D01*
X026203Y031392D01*
X026198Y031394D01*
X026193Y031394D01*
X026187Y031391D01*
X026180Y031387D01*
X026172Y031381D01*
X026162Y031372D01*
X026153Y031475D01*
X026164Y031486D01*
X026174Y031497D01*
X026182Y031508D01*
X026190Y031520D01*
X026196Y031531D01*
X026201Y031542D01*
X026205Y031553D01*
X026208Y031564D01*
X026210Y031575D01*
X026210Y031586D01*
Y031363D01*
D02*
G37*
G36*
X027231Y031714D02*
X027224Y031707D01*
X027218Y031699D01*
X027214Y031691D01*
X027209Y031681D01*
X027206Y031670D01*
X027203Y031659D01*
X027202Y031646D01*
X027200Y031632D01*
X027200Y031617D01*
X027100D01*
X027100Y031632D01*
X027098Y031646D01*
X027097Y031659D01*
X027094Y031670D01*
X027091Y031681D01*
X027086Y031691D01*
X027082Y031699D01*
X027076Y031707D01*
X027069Y031714D01*
X027062Y031719D01*
X027238D01*
X027231Y031714D01*
D02*
G37*
G36*
X023436Y030890D02*
X023414Y030911D01*
X023391Y030930D01*
X023386Y030934D01*
X023261Y030809D01*
X022265D01*
X022133Y030941D01*
Y031178D01*
X022265Y031309D01*
X023261D01*
X023336Y031235D01*
X023343Y031239D01*
X023367Y031253D01*
X023391Y031270D01*
X023414Y031289D01*
X023436Y031310D01*
Y030890D01*
D02*
G37*
G36*
X020937Y030683D02*
X020947Y030674D01*
X020960Y030665D01*
X020978Y030657D01*
X021001Y030651D01*
X021028Y030646D01*
X021059Y030641D01*
X021134Y030637D01*
X021178Y030636D01*
X021125Y030164D01*
X020670Y030225D01*
X020932Y030695D01*
X020937Y030683D01*
D02*
G37*
G36*
X023886Y031289D02*
X023909Y031270D01*
X023933Y031253D01*
X023957Y031239D01*
X023981Y031226D01*
X024006Y031216D01*
X024032Y031208D01*
X024059Y031203D01*
X024086Y031200D01*
X024113Y031198D01*
Y031002D01*
X024086Y031000D01*
X024059Y030997D01*
X024032Y030992D01*
X024006Y030984D01*
X023981Y030974D01*
X023957Y030961D01*
X023933Y030947D01*
X023909Y030930D01*
X023886Y030911D01*
X023864Y030890D01*
Y031310D01*
X023886Y031289D01*
D02*
G37*
G36*
X030548Y031505D02*
X030549Y031479D01*
X030551Y031453D01*
X030560Y031400D01*
X030566Y031373D01*
X030583Y031317D01*
X030594Y031289D01*
X030619Y031232D01*
X030223Y031372D01*
X030248Y031385D01*
X030270Y031399D01*
X030289Y031416D01*
X030305Y031434D01*
X030320Y031454D01*
X030331Y031476D01*
X030340Y031499D01*
X030346Y031524D01*
X030350Y031551D01*
X030352Y031580D01*
X030548Y031505D01*
D02*
G37*
G36*
X030625Y032648D02*
X030609Y032622D01*
X030595Y032595D01*
X030582Y032569D01*
X030572Y032543D01*
X030564Y032516D01*
X030557Y032490D01*
X030552Y032463D01*
X030549Y032436D01*
X030548Y032409D01*
X030352Y032374D01*
X030350Y032402D01*
X030347Y032429D01*
X030341Y032455D01*
X030332Y032480D01*
X030321Y032504D01*
X030307Y032526D01*
X030291Y032547D01*
X030273Y032567D01*
X030252Y032586D01*
X030229Y032604D01*
X030643Y032674D01*
X030625Y032648D01*
D02*
G37*
G36*
X021176Y033304D02*
X021238Y033252D01*
X021238Y033252D01*
X021316Y033177D01*
X021457Y033058D01*
X021520Y033015D01*
X021578Y032982D01*
X021631Y032959D01*
X021680Y032946D01*
X021723Y032945D01*
X021761Y032953D01*
X021795Y032972D01*
X021171Y032486D01*
X021196Y032513D01*
X021209Y032547D01*
X021211Y032587D01*
X021201Y032633D01*
X021179Y032686D01*
X021145Y032744D01*
X021099Y032809D01*
X021042Y032881D01*
X020960Y032968D01*
X020924Y032998D01*
X020897Y033015D01*
X020873Y033027D01*
X020850Y033036D01*
X020828Y033040D01*
X020809Y033039D01*
X020790Y033035D01*
X020774Y033026D01*
X020858Y033393D01*
X020666Y033726D01*
X021122Y033812D01*
X021176Y033304D01*
D02*
G37*
G36*
X024458Y032879D02*
X024461Y032844D01*
X024464Y032828D01*
X024468Y032813D01*
X024473Y032799D01*
X024479Y032786D01*
X024486Y032774D01*
X024494Y032763D01*
X024502Y032753D01*
X024447Y032698D01*
X024437Y032706D01*
X024426Y032714D01*
X024414Y032721D01*
X024401Y032727D01*
X024387Y032732D01*
X024372Y032736D01*
X024356Y032739D01*
X024339Y032741D01*
X024321Y032742D01*
X024302Y032743D01*
X024457Y032898D01*
X024458Y032879D01*
D02*
G37*
G36*
X025658Y032281D02*
X025650Y032296D01*
X025642Y032310D01*
X025632Y032322D01*
X025622Y032332D01*
X025612Y032341D01*
X025600Y032348D01*
X025588Y032353D01*
X025576Y032357D01*
X025562Y032360D01*
X025548Y032361D01*
X025576Y032439D01*
X025587Y032440D01*
X025599Y032441D01*
X025612Y032444D01*
X025626Y032448D01*
X025656Y032458D01*
X025673Y032464D01*
X025728Y032490D01*
X025658Y032281D01*
D02*
G37*
G36*
X027200Y031808D02*
X027195Y031736D01*
X027194Y031731D01*
X027193Y031728D01*
X027191Y031727D01*
X027050Y031726D01*
X027060Y031727D01*
X027068Y031730D01*
X027076Y031735D01*
X027082Y031742D01*
X027088Y031751D01*
X027092Y031762D01*
X027095Y031776D01*
X027098Y031791D01*
X027099Y031808D01*
X027100Y031827D01*
X027200D01*
X027200Y031808D01*
D02*
G37*
G36*
X022389Y031811D02*
X022310Y031733D01*
X022078Y031534D01*
X022041Y031512D01*
X022012Y031501D01*
X021991Y031500D01*
X021978Y031511D01*
X021974Y031533D01*
X021515Y031766D01*
X021554Y031752D01*
X021597Y031749D01*
X021645Y031756D01*
X021697Y031774D01*
X021754Y031801D01*
X021816Y031838D01*
X021883Y031886D01*
X021954Y031943D01*
X022111Y032089D01*
X022389Y031811D01*
D02*
G37*
G36*
X023403Y032322D02*
X023369Y032310D01*
X023329Y032289D01*
X023283Y032260D01*
X023232Y032222D01*
X023112Y032122D01*
X022968Y031988D01*
X022887Y031909D01*
X022511Y032089D01*
X022555Y032134D01*
X022646Y032241D01*
X022663Y032267D01*
X022673Y032289D01*
X022677Y032305D01*
X022673Y032317D01*
X022663Y032324D01*
X022646Y032327D01*
X023431D01*
X023403Y032322D01*
D02*
G37*
D16*
X026700Y030459D02*
D03*
X026326Y031541D02*
D03*
X027074D02*
D03*
D20*
X027150Y031617D01*
Y031850D01*
D21*
X025750Y032400D02*
X025800Y032350D01*
Y031400D02*
X026135D01*
X024800Y032400D02*
X025750D01*
X024300Y032900D02*
X024800Y032400D01*
X026135Y031400D02*
X026326Y031591D01*
D22*
X023650Y031100D02*
X024800D01*
X026800Y032200D02*
X030400D01*
X026556Y031956D02*
X026800Y032200D01*
X025656Y031956D02*
X026556D01*
X024800Y031100D02*
X025656Y031956D01*
X030450Y032250D02*
Y032700D01*
Y031250D02*
Y032250D01*
X030400Y032200D02*
X030450Y032250D01*
X022850Y031100D02*
X023650D01*
X030400Y032750D02*
X030450Y032700D01*
D23*
X025800Y032900D02*
D03*
X023850Y032350D02*
D03*
X020500D02*
D03*
Y031450D02*
D03*
D24*
X020550Y033350D02*
D03*
Y030600D02*
D03*
X031250Y033200D02*
D03*
Y030700D02*
D03*
D25*
X029350Y031100D02*
D03*
X030350D02*
D03*
X030400Y032850D02*
D03*
X029400D02*
D03*
X023650Y031100D02*
D03*
D26*
X027150Y031850D02*
D03*
X025800Y032350D02*
D03*
X026700Y031000D02*
D03*
X025800Y031400D02*
D03*
X024300Y032900D02*
D03*
X022000Y030400D02*
D03*
D27*
X021700Y030469D02*
D03*
Y031650D02*
D03*
D28*
X021779Y031059D02*
D03*
D29*
X023038Y032650D02*
D03*
X021562D02*
D03*
D30*
X024200Y031094D02*
D03*
Y030406D02*
D03*
D31*
X020550Y030600D02*
X020750Y030400D01*
X027010Y031010D02*
X027074Y031074D01*
X030989Y030439D02*
X031250Y030700D01*
X026700Y030439D02*
X030989D01*
X020750Y030400D02*
X022000D01*
D32*
X025550D02*
X026160Y031010D01*
X030894Y033556D02*
X031250Y033200D01*
X020706Y033556D02*
X030894D01*
X020681Y033531D02*
X020706Y033556D01*
X022000Y030400D02*
X025550D01*
X026160Y031010D02*
X027010D01*
D33*
X027074Y031074D02*
Y031541D01*
X020500Y030600D02*
X020550D01*
X022250Y031950D02*
X022650D01*
X021950Y031650D02*
X022250Y031950D01*
X022650D02*
X023038Y032338D01*
X021700Y031650D02*
X021950D01*
X023038Y032338D02*
Y032650D01*
X020706Y033506D02*
X021562Y032650D01*
X020681Y033531D02*
X020706Y033506D01*
M02*
