G04 Layer_Color=16711935*
%FSAX24Y24*%
%MOIN*%
G70*
G01*
G75*
%ADD34C,0.0039*%
D34*
X022477Y030528D02*
G03*
X022477Y030528I-000197J000000D01*
G01*
X023565Y032945D02*
G03*
X023565Y032945I-000197J000000D01*
G01*
X021906Y030154D02*
Y031965D01*
X022929Y030154D02*
Y031965D01*
X021906Y030154D02*
X022929D01*
X021906Y031965D02*
X022929D01*
X027298Y030646D02*
Y031354D01*
X026102Y030646D02*
X027298D01*
X026102Y031354D02*
X027298D01*
X026102Y030646D02*
Y031354D01*
X026243Y032188D02*
X026557D01*
Y033212D01*
X026243Y032188D02*
Y033212D01*
X026557D01*
X026793Y032954D02*
X027107D01*
X026793Y032246D02*
Y032954D01*
Y032246D02*
X027107D01*
Y032954D01*
X021394Y032079D02*
X023206D01*
Y033221D01*
X021394Y032079D02*
Y033221D01*
X023206D01*
X028712Y033143D02*
Y033457D01*
X027688D02*
X028712D01*
X027688Y033143D02*
X028712D01*
X027688D02*
Y033457D01*
X021343Y031512D02*
X021657D01*
X021343Y030488D02*
Y031512D01*
X021657Y030488D02*
Y031512D01*
X021343Y030488D02*
X021657D01*
X021315Y032172D02*
Y033628D01*
Y032172D02*
X021985D01*
X021315Y033628D02*
X021985D01*
Y032172D02*
Y033628D01*
X024162Y030193D02*
Y030507D01*
X023138D02*
X024162D01*
X023138Y030193D02*
X024162D01*
X023138D02*
Y030507D01*
X024786Y030701D02*
Y033299D01*
X023014D02*
X024786D01*
X023014Y030701D02*
X024786D01*
X023014D02*
Y033299D01*
X024662Y033443D02*
Y033757D01*
X023638D02*
X024662D01*
X023638Y033443D02*
X024662D01*
X023638D02*
Y033757D01*
X027298Y030646D02*
Y031354D01*
X026102D02*
X027298D01*
X026102Y030646D02*
X027298D01*
X026102D02*
Y031354D01*
X028712Y032343D02*
Y032657D01*
X027688D02*
X028712D01*
X027688Y032343D02*
X028712D01*
X027688D02*
Y032657D01*
X028956Y030920D02*
Y031570D01*
X027656Y030920D02*
Y031570D01*
Y030920D02*
X028956D01*
X027656Y031570D02*
X028956D01*
X023934Y030317D02*
Y031183D01*
X024466Y030317D02*
Y031183D01*
X023934D02*
X024466D01*
X023934Y030317D02*
X024466D01*
M02*
