G04 Layer_Color=16711935*
%FSTAX24Y24*%
%MOIN*%
G70*
G01*
G75*
%ADD20C,0.0100*%
%ADD57C,0.0060*%
D20*
X0159Y03395D02*
X019841D01*
X0159Y03D02*
X019841D01*
X016Y029D02*
Y03D01*
Y03395D02*
Y03495D01*
X0158Y0294D02*
X016Y03D01*
X0162Y0294D01*
X016Y03395D02*
X0162Y03455D01*
X0158D02*
X016Y03395D01*
D57*
X01528Y029166D02*
Y029366D01*
Y029266D01*
X01468D01*
X01478Y029166D01*
Y029666D02*
X01468Y029766D01*
Y029966D01*
X01478Y030066D01*
X01518D01*
X01528Y029966D01*
Y029766D01*
X01518Y029666D01*
X01478D01*
X01528Y030266D02*
X01518D01*
Y030365D01*
X01528D01*
Y030266D01*
X01478Y030765D02*
X01468Y030865D01*
Y031065D01*
X01478Y031165D01*
X01518D01*
X01528Y031065D01*
Y030865D01*
X01518Y030765D01*
X01478D01*
Y031365D02*
X01468Y031465D01*
Y031665D01*
X01478Y031765D01*
X01488D01*
X01498Y031665D01*
Y031565D01*
Y031665D01*
X01508Y031765D01*
X01518D01*
X01528Y031665D01*
Y031465D01*
X01518Y031365D01*
X01528Y032765D02*
X01508Y032565D01*
X01488D01*
X01468Y032765D01*
X01528Y033065D02*
X01488D01*
Y033165D01*
X01498Y033265D01*
X01528D01*
X01498D01*
X01488Y033365D01*
X01498Y033464D01*
X01528D01*
Y033664D02*
X01488D01*
Y033764D01*
X01498Y033864D01*
X01528D01*
X01498D01*
X01488Y033964D01*
X01498Y034064D01*
X01528D01*
Y034264D02*
X01508Y034464D01*
X01488D01*
X01468Y034264D01*
M02*
