G04 Layer_Color=32896*
%FSTAX24Y24*%
%MOIN*%
G70*
G01*
G75*
%ADD20C,0.0100*%
%ADD21C,0.0079*%
%ADD36C,0.0098*%
%ADD37C,0.0059*%
D20*
X02408Y03223D02*
X02418Y03233D01*
X02438D01*
X02448Y03223D01*
Y03183D01*
X02438Y03173D01*
X02418D01*
X02408Y03183D01*
X02388Y03173D02*
X02368D01*
X02378D01*
Y03233D01*
X02388Y03223D01*
D21*
X021906Y030154D02*
X022929D01*
Y030528D01*
X021906Y031965D02*
X022929D01*
Y031591D02*
Y031965D01*
X027291Y030646D02*
Y031197D01*
X026976Y030646D02*
X027291D01*
X026109D02*
Y031197D01*
Y030646D02*
X026424D01*
X023206Y032079D02*
Y032168D01*
Y033132D02*
Y033221D01*
X021394Y032079D02*
X023206D01*
X021394D02*
Y032168D01*
Y033221D02*
X023206D01*
X021394Y033132D02*
Y033221D01*
D36*
X021699Y030134D02*
G03*
X021699Y030134I-000049J0D01*
G01*
X026041Y031541D02*
G03*
X026041Y031541I-000049J0D01*
G01*
X023511Y033191D02*
G03*
X023511Y033191I-000049J0D01*
G01*
D37*
X021215Y031D02*
X020952D01*
X0209Y031052D01*
Y031157D01*
X020952Y03121D01*
X021215D01*
X0209Y031315D02*
Y03142D01*
Y031367D01*
X021215D01*
X021162Y031315D01*
X02744Y030252D02*
Y030462D01*
X027493Y030515D01*
X027598D01*
X02765Y030462D01*
Y030252D01*
X027598Y0302D01*
X027493D01*
X027545Y030305D02*
X02744Y0302D01*
X027493D02*
X02744Y030252D01*
X027335Y0302D02*
X02723D01*
X027283D01*
Y030515D01*
X027335Y030462D01*
X0235Y033865D02*
Y03355D01*
X023343D01*
X02329Y033602D01*
Y033812D01*
X023343Y033865D01*
X0235D01*
X023185Y03355D02*
X02308D01*
X023133D01*
Y033865D01*
X023185Y033812D01*
M02*
