G04 Layer_Color=8388736*
%FSTAX24Y24*%
%MOIN*%
G70*
G01*
G75*
%ADD43R,0.0631X0.0533*%
%ADD44R,0.0552X0.0552*%
%ADD45R,0.0710X0.0671*%
%ADD46R,0.0592X0.0415*%
%ADD47R,0.0316X0.0454*%
%ADD48O,0.0631X0.0257*%
%ADD49R,0.0631X0.0257*%
%ADD50R,0.0808X0.0572*%
%ADD51R,0.0415X0.0513*%
%ADD52R,0.0454X0.0434*%
%ADD53R,0.0415X0.0592*%
%ADD54C,0.0680*%
%ADD55C,0.0867*%
%ADD56C,0.0552*%
%ADD57C,0.0395*%
D43*
X02185Y031544D02*
D03*
Y030856D02*
D03*
D44*
X0287Y03185D02*
D03*
X027913D02*
D03*
D45*
X028306Y03057D02*
D03*
D46*
X027846Y0325D02*
D03*
X028654D02*
D03*
X023746Y03365D02*
D03*
X024554D02*
D03*
X023246Y03035D02*
D03*
X024054D02*
D03*
X027796Y0333D02*
D03*
X028604D02*
D03*
D47*
X027074Y030459D02*
D03*
X026326D02*
D03*
X0267Y031541D02*
D03*
D48*
X022739Y03136D02*
D03*
Y031104D02*
D03*
Y030848D02*
D03*
Y031872D02*
D03*
Y031616D02*
D03*
Y032128D02*
D03*
Y032384D02*
D03*
Y032896D02*
D03*
Y03264D02*
D03*
X025061Y030848D02*
D03*
Y03136D02*
D03*
Y031104D02*
D03*
Y031616D02*
D03*
Y031872D02*
D03*
Y032384D02*
D03*
Y032128D02*
D03*
Y033152D02*
D03*
Y03264D02*
D03*
Y032896D02*
D03*
D49*
X022739Y033152D02*
D03*
D50*
X02165Y03358D02*
D03*
Y0323D02*
D03*
D51*
X0212Y030796D02*
D03*
Y031604D02*
D03*
D52*
X02695Y032305D02*
D03*
Y032895D02*
D03*
D53*
X0264Y033104D02*
D03*
Y032296D02*
D03*
D54*
X02365Y0311D02*
D03*
X0294Y03285D02*
D03*
X0304D02*
D03*
X03035Y0311D02*
D03*
X02935D02*
D03*
D55*
X03125Y0307D02*
D03*
Y0332D02*
D03*
X02055Y0306D02*
D03*
Y03335D02*
D03*
D56*
X0205Y03145D02*
D03*
Y03235D02*
D03*
X02385D02*
D03*
X0258Y0329D02*
D03*
D57*
X0243D02*
D03*
X0267Y031D02*
D03*
X0258Y0315D02*
D03*
Y03235D02*
D03*
X02695Y032D02*
D03*
M02*
