G04 Layer_Color=255*
%FSTAX24Y24*%
%MOIN*%
G70*
G01*
G75*
%ADD10R,0.0335X0.0512*%
%ADD11R,0.0374X0.0276*%
%ADD12R,0.0512X0.0335*%
%ADD13R,0.0728X0.0492*%
%ADD14O,0.0551X0.0177*%
%ADD15R,0.0551X0.0177*%
%ADD16R,0.0236X0.0374*%
%ADD17R,0.0630X0.0591*%
%ADD18R,0.0472X0.0472*%
%ADD23C,0.0472*%
%ADD24C,0.0787*%
%ADD25C,0.0600*%
D10*
X0264Y032296D02*
D03*
Y033104D02*
D03*
X0215Y031404D02*
D03*
Y030596D02*
D03*
D11*
X02695Y032895D02*
D03*
Y032305D02*
D03*
D12*
X028604Y0333D02*
D03*
X027796D02*
D03*
X024054Y03035D02*
D03*
X023246D02*
D03*
X024554Y0336D02*
D03*
X023746D02*
D03*
X028604Y0325D02*
D03*
X027796D02*
D03*
D13*
X02165Y03226D02*
D03*
Y03354D02*
D03*
D14*
X025061Y032896D02*
D03*
Y03264D02*
D03*
Y033152D02*
D03*
Y032128D02*
D03*
Y032384D02*
D03*
Y031872D02*
D03*
Y031616D02*
D03*
Y031104D02*
D03*
Y03136D02*
D03*
Y030848D02*
D03*
X022739Y03264D02*
D03*
Y032896D02*
D03*
Y032384D02*
D03*
Y032128D02*
D03*
Y031616D02*
D03*
Y031872D02*
D03*
Y030848D02*
D03*
Y031104D02*
D03*
Y03136D02*
D03*
D15*
Y033152D02*
D03*
D16*
X0267Y031541D02*
D03*
X026326Y030459D02*
D03*
X027074D02*
D03*
D17*
X028306Y03057D02*
D03*
D18*
X027913Y03185D02*
D03*
X0287D02*
D03*
D23*
X0258Y0329D02*
D03*
X02385Y03235D02*
D03*
X0205D02*
D03*
Y03145D02*
D03*
D24*
X02055Y03335D02*
D03*
Y0306D02*
D03*
X03125Y0332D02*
D03*
Y0307D02*
D03*
D25*
X02935Y0311D02*
D03*
X03035D02*
D03*
X0304Y03285D02*
D03*
X0294D02*
D03*
X02365Y0311D02*
D03*
M02*
