G04 Layer_Color=32768*
%FSTAX24Y24*%
%MOIN*%
G70*
G01*
G75*
%ADD39C,0.0039*%
%ADD62C,0.0020*%
D39*
X0223Y032453D02*
Y032847D01*
X022103Y03265D02*
X022497D01*
X02185Y031003D02*
Y031397D01*
X021653Y0312D02*
X022047D01*
X0242Y030553D02*
Y030947D01*
X024003Y03075D02*
X024397D01*
X028109Y03057D02*
X028503D01*
X028306Y030374D02*
Y030767D01*
X02825Y032343D02*
Y032657D01*
X028093Y0325D02*
X028407D01*
X0267Y030803D02*
Y031197D01*
X026503Y031D02*
X026897D01*
X02415Y033493D02*
Y033807D01*
X023993Y03365D02*
X024307D01*
X023703Y032D02*
X024097D01*
X0239Y031803D02*
Y032197D01*
X02365Y030193D02*
Y030507D01*
X023493Y03035D02*
X023807D01*
X021453Y03294D02*
X021847D01*
X02165Y032743D02*
Y033137D01*
X021043Y0312D02*
X021357D01*
X0212Y031043D02*
Y031357D01*
X0282Y033143D02*
Y033457D01*
X028043Y0333D02*
X028357D01*
X026793Y0326D02*
X027107D01*
X02695Y032443D02*
Y032757D01*
X026243Y0327D02*
X026557D01*
X0264Y032543D02*
Y032857D01*
X0267Y030803D02*
Y031197D01*
X026503Y031D02*
X026897D01*
X022418Y030863D02*
Y031256D01*
X022221Y031059D02*
X022614D01*
D62*
X023481Y03202D02*
Y03328D01*
X021119D02*
X023481D01*
X021119Y03202D02*
X023481D01*
X021119D02*
Y03328D01*
X021476Y031869D02*
X022224D01*
X021476Y030531D02*
X022224D01*
Y031869D01*
X021476Y030531D02*
Y031869D01*
X023826Y030081D02*
X024574D01*
X023826Y031419D02*
X024574D01*
Y030081D02*
Y031419D01*
X023826Y030081D02*
Y031419D01*
X029133Y03017D02*
Y03217D01*
X027556D02*
X029133D01*
X027556Y03017D02*
X029133D01*
X027556D02*
Y03217D01*
X027482Y032224D02*
Y032776D01*
Y032224D02*
X029018D01*
X027482Y032776D02*
X029018D01*
Y032224D02*
Y032776D01*
X026011Y030173D02*
Y031827D01*
Y030173D02*
X027389D01*
X026011Y031827D02*
X027389D01*
Y030173D02*
Y031827D01*
X023382Y033374D02*
Y033926D01*
Y033374D02*
X024918D01*
X023382Y033926D02*
X024918D01*
Y033374D02*
Y033926D01*
X022365Y030602D02*
Y033398D01*
Y030602D02*
X025435D01*
X022365Y033398D02*
X025435D01*
Y030602D02*
Y033398D01*
X022882Y030074D02*
Y030626D01*
Y030074D02*
X024418D01*
X022882Y030626D02*
X024418D01*
Y030074D02*
Y030626D01*
X022113Y031956D02*
Y033924D01*
X021187D02*
X022113D01*
X021187Y031956D02*
X022113D01*
X021187D02*
Y033924D01*
X020924Y030432D02*
X021476D01*
Y031968D01*
X020924Y030432D02*
Y031968D01*
X021476D01*
X027432Y033024D02*
Y033576D01*
Y033024D02*
X028968D01*
X027432Y033576D02*
X028968D01*
Y033024D02*
Y033576D01*
X026655Y032069D02*
X027245D01*
Y033131D01*
X026655Y032069D02*
Y033131D01*
X027245D01*
X026124Y033468D02*
X026676D01*
X026124Y031932D02*
Y033468D01*
X026676Y031932D02*
Y033468D01*
X026124Y031932D02*
X026676D01*
X026011Y030173D02*
Y031827D01*
X027389D01*
X026011Y030173D02*
X027389D01*
Y031827D01*
X021326Y032063D02*
X023491D01*
X021326Y030056D02*
X023491D01*
Y032063D01*
X021326Y030056D02*
Y032063D01*
M02*
