G04 Layer_Color=128*
%FSAX24Y24*%
%MOIN*%
G70*
G01*
G75*
%ADD59C,0.0020*%
D59*
X025682Y032900D02*
X025918D01*
X025800Y032782D02*
Y033018D01*
X023732Y032350D02*
X023968D01*
X023850Y032232D02*
Y032468D01*
X020382Y032350D02*
X020618D01*
X020500Y032232D02*
Y032468D01*
X020382Y031450D02*
X020618D01*
X020500Y031332D02*
Y031568D01*
X020432Y033350D02*
X020668D01*
X020550Y033232D02*
Y033468D01*
X020432Y030600D02*
X020668D01*
X020550Y030482D02*
Y030718D01*
X029200Y031100D02*
X029500D01*
X029350Y030950D02*
Y031250D01*
X030200Y031100D02*
X030500D01*
X030350Y030950D02*
Y031250D01*
X030250Y032850D02*
X030550D01*
X030400Y032700D02*
Y033000D01*
X029250Y032850D02*
X029550D01*
X029400Y032700D02*
Y033000D01*
X031132Y033200D02*
X031368D01*
X031250Y033082D02*
Y033318D01*
X031132Y030700D02*
X031368D01*
X031250Y030582D02*
Y030818D01*
X023500Y031100D02*
X023800D01*
X023650Y030950D02*
Y031250D01*
X027071Y031850D02*
X027229D01*
X027150Y031771D02*
Y031929D01*
X025721Y032350D02*
X025879D01*
X025800Y032271D02*
Y032429D01*
X026621Y031000D02*
X026779D01*
X026700Y030921D02*
Y031079D01*
X025721Y031400D02*
X025879D01*
X025800Y031321D02*
Y031479D01*
X024221Y032900D02*
X024379D01*
X024300Y032821D02*
Y032979D01*
X021921Y030400D02*
X022079D01*
X022000Y030321D02*
Y030479D01*
M02*
