G04 Layer_Color=128*
%FSTAX24Y24*%
%MOIN*%
G70*
G01*
G75*
%ADD63C,0.0020*%
D63*
X0235Y0311D02*
X0238D01*
X02365Y03095D02*
Y03125D01*
X031132Y0307D02*
X031368D01*
X03125Y030582D02*
Y030818D01*
X031132Y0332D02*
X031368D01*
X03125Y033082D02*
Y033318D01*
X02925Y03285D02*
X02955D01*
X0294Y0327D02*
Y033D01*
X03025Y03285D02*
X03055D01*
X0304Y0327D02*
Y033D01*
X0302Y0311D02*
X0305D01*
X03035Y03095D02*
Y03125D01*
X0292Y0311D02*
X0295D01*
X02935Y03095D02*
Y03125D01*
X020432Y0306D02*
X020668D01*
X02055Y030482D02*
Y030718D01*
X020432Y03335D02*
X020668D01*
X02055Y033232D02*
Y033468D01*
X020382Y03145D02*
X020618D01*
X0205Y031332D02*
Y031568D01*
X020382Y03235D02*
X020618D01*
X0205Y032232D02*
Y032468D01*
X023732Y03235D02*
X023968D01*
X02385Y032232D02*
Y032468D01*
X025682Y0329D02*
X025918D01*
X0258Y032782D02*
Y033018D01*
X024221Y0329D02*
X024379D01*
X0243Y032821D02*
Y032979D01*
X026621Y031D02*
X026779D01*
X0267Y030921D02*
Y031079D01*
X025721Y0315D02*
X025879D01*
X0258Y031421D02*
Y031579D01*
X025721Y03235D02*
X025879D01*
X0258Y032271D02*
Y032429D01*
X026871Y032D02*
X027029D01*
X02695Y031921D02*
Y032079D01*
M02*
