G04 Layer_Color=65535*
%FSTAX24Y24*%
%MOIN*%
G70*
G01*
G75*
%ADD20C,0.0100*%
%ADD21C,0.0079*%
%ADD34C,0.0039*%
%ADD35C,0.0236*%
%ADD36C,0.0098*%
%ADD37C,0.0059*%
%ADD38R,0.0650X0.0217*%
D20*
X029Y03045D02*
G03*
X029014Y031768I000754J000651D01*
G01*
X03075Y0335D02*
G03*
X030736Y032182I-000754J-000651D01*
G01*
X029Y03045D02*
Y031748D01*
X03075Y032202D02*
Y0335D01*
D21*
X026528Y032661D02*
Y032739D01*
X026272Y032661D02*
Y032739D01*
X026802Y032561D02*
Y032639D01*
X027098Y032561D02*
Y032639D01*
X028161Y033428D02*
X028239D01*
X028161Y033172D02*
X028239D01*
X021372Y030961D02*
Y031039D01*
X021628Y030961D02*
Y031039D01*
X021325Y032664D02*
Y033136D01*
Y032664D02*
X021975D01*
Y033136D01*
X023611Y030478D02*
X023689D01*
X023611Y030222D02*
X023689D01*
X023172Y033299D02*
X024628D01*
Y030701D02*
Y033299D01*
X023172Y030701D02*
X024628D01*
X023172D02*
Y033299D01*
X024111Y033728D02*
X024189D01*
X024111Y033472D02*
X024189D01*
X027291Y030803D02*
Y031354D01*
X026976D02*
X027291D01*
X026109Y030803D02*
Y031354D01*
X026424D01*
X028161Y032628D02*
X028239D01*
X028161Y032372D02*
X028239D01*
X027656Y03022D02*
Y03092D01*
Y03022D02*
X027906D01*
X028956D02*
Y03092D01*
X028706Y03022D02*
X028956D01*
D34*
X026699Y032083D02*
G03*
X026699Y032083I-00002J0D01*
G01*
D35*
X023683Y032906D02*
G03*
X023683Y032906I-000118J0D01*
G01*
D36*
X022788Y033457D02*
G03*
X022788Y033457I-000049J0D01*
G01*
X026041Y030459D02*
G03*
X026041Y030459I-000049J0D01*
G01*
X029106Y03187D02*
G03*
X029106Y03187I-000049J0D01*
G01*
D37*
X01915Y03125D02*
Y031565D01*
X019307D01*
X01936Y031512D01*
Y031407D01*
X019307Y031355D01*
X01915D01*
X019465Y031512D02*
X019517Y031565D01*
X019622D01*
X019675Y031512D01*
Y03146D01*
X019622Y031407D01*
X019675Y031355D01*
Y031302D01*
X019622Y03125D01*
X019517D01*
X019465Y031302D01*
Y031355D01*
X019517Y031407D01*
X019465Y03146D01*
Y031512D01*
X019517Y031407D02*
X019622D01*
X01915Y03215D02*
Y032465D01*
X019307D01*
X01936Y032412D01*
Y032307D01*
X019307Y032255D01*
X01915D01*
X019465Y032465D02*
X019675D01*
Y032412D01*
X019465Y032202D01*
Y03215D01*
X02363Y03289D02*
Y033205D01*
X023787D01*
X02384Y033152D01*
Y033047D01*
X023787Y032995D01*
X02363D01*
X024155Y033205D02*
X02405Y033152D01*
X023945Y033047D01*
Y032942D01*
X023997Y03289D01*
X024102D01*
X024155Y032942D01*
Y032995D01*
X024102Y033047D01*
X023945D01*
X0256Y03315D02*
Y033465D01*
X025757D01*
X02581Y033412D01*
Y033307D01*
X025757Y033255D01*
X0256D01*
X026125Y033465D02*
X025915D01*
Y033307D01*
X02602Y03336D01*
X026072D01*
X026125Y033307D01*
Y033202D01*
X026072Y03315D01*
X025967D01*
X025915Y033202D01*
X03205Y03305D02*
Y033365D01*
X032207D01*
X03226Y033312D01*
Y033207D01*
X032207Y033155D01*
X03205D01*
X032522Y03305D02*
Y033365D01*
X032365Y033207D01*
X032575D01*
X032Y0305D02*
Y030815D01*
X032157D01*
X03221Y030762D01*
Y030657D01*
X032157Y030605D01*
X032D01*
X032315Y030762D02*
X032367Y030815D01*
X032472D01*
X032525Y030762D01*
Y03071D01*
X032472Y030657D01*
X03242D01*
X032472D01*
X032525Y030605D01*
Y030552D01*
X032472Y0305D01*
X032367D01*
X032315Y030552D01*
X01915Y0304D02*
Y030715D01*
X019307D01*
X01936Y030662D01*
Y030557D01*
X019307Y030505D01*
X01915D01*
X019675Y0304D02*
X019465D01*
X019675Y03061D01*
Y030662D01*
X019622Y030715D01*
X019517D01*
X019465Y030662D01*
X01925Y0332D02*
Y033515D01*
X019407D01*
X01946Y033462D01*
Y033357D01*
X019407Y033305D01*
X01925D01*
X019565Y0332D02*
X01967D01*
X019617D01*
Y033515D01*
X019565Y033462D01*
X02535Y031965D02*
Y031702D01*
X025402Y03165D01*
X025507D01*
X02556Y031702D01*
Y031965D01*
X025875Y03165D02*
X025665D01*
X025875Y03186D01*
Y031912D01*
X025822Y031965D01*
X025717D01*
X025665Y031912D01*
X0281Y03105D02*
Y031365D01*
X028257D01*
X02831Y031312D01*
Y031207D01*
X028257Y031155D01*
X0281D01*
X028205D02*
X02831Y03105D01*
X028415Y031365D02*
X028625D01*
Y031312D01*
X028415Y031102D01*
Y03105D01*
X02795Y03275D02*
Y033065D01*
X028107D01*
X02816Y033012D01*
Y032907D01*
X028107Y032855D01*
X02795D01*
X028055D02*
X02816Y03275D01*
X028475Y033065D02*
X02837Y033012D01*
X028265Y032907D01*
Y032802D01*
X028317Y03275D01*
X028422D01*
X028475Y032802D01*
Y032855D01*
X028422Y032907D01*
X028265D01*
X0262Y03345D02*
Y033765D01*
X026357D01*
X02641Y033712D01*
Y033607D01*
X026357Y033555D01*
X0262D01*
X026305D02*
X02641Y03345D01*
X026725Y033765D02*
X026515D01*
Y033607D01*
X02662Y03366D01*
X026672D01*
X026725Y033607D01*
Y033502D01*
X026672Y03345D01*
X026567D01*
X026515Y033502D01*
X0245Y03015D02*
Y030465D01*
X024657D01*
X02471Y030412D01*
Y030307D01*
X024657Y030255D01*
X0245D01*
X024605D02*
X02471Y03015D01*
X024972D02*
Y030465D01*
X024815Y030307D01*
X025025D01*
X02225Y03085D02*
X021935D01*
Y031007D01*
X021988Y03106D01*
X022093D01*
X022145Y031007D01*
Y03085D01*
Y030955D02*
X02225Y03106D01*
X021988Y031165D02*
X021935Y031217D01*
Y031322D01*
X021988Y031375D01*
X02204D01*
X022093Y031322D01*
Y03127D01*
Y031322D01*
X022145Y031375D01*
X022198D01*
X02225Y031322D01*
Y031217D01*
X022198Y031165D01*
X02795Y03355D02*
Y033865D01*
X028107D01*
X02816Y033812D01*
Y033707D01*
X028107Y033655D01*
X02795D01*
X028055D02*
X02816Y03355D01*
X028475D02*
X028265D01*
X028475Y03376D01*
Y033812D01*
X028422Y033865D01*
X028317D01*
X028265Y033812D01*
X02495Y0334D02*
Y033715D01*
X025107D01*
X02516Y033662D01*
Y033557D01*
X025107Y033505D01*
X02495D01*
X025055D02*
X02516Y0334D01*
X025265D02*
X02537D01*
X025317D01*
Y033715D01*
X025265Y033662D01*
X025798Y03086D02*
X025588D01*
X025535Y030807D01*
Y030702D01*
X025588Y03065D01*
X025798D01*
X02585Y030702D01*
Y030807D01*
X025745Y030755D02*
X02585Y03086D01*
Y030807D02*
X025798Y03086D01*
X025588Y030965D02*
X025535Y031017D01*
Y031122D01*
X025588Y031175D01*
X02564D01*
X025693Y031122D01*
Y03107D01*
Y031122D01*
X025745Y031175D01*
X025798D01*
X02585Y031122D01*
Y031017D01*
X025798Y030965D01*
X02991Y033252D02*
Y033462D01*
X029857Y033515D01*
X029752D01*
X0297Y033462D01*
Y033252D01*
X029752Y0332D01*
X029857D01*
X029805Y033305D02*
X02991Y0332D01*
X029857D02*
X02991Y033252D01*
X030225Y0332D02*
X030015D01*
X030225Y03341D01*
Y033462D01*
X030172Y033515D01*
X030067D01*
X030015Y033462D01*
X02955Y030665D02*
Y03035D01*
X029707D01*
X02976Y030402D01*
Y030612D01*
X029707Y030665D01*
X02955D01*
X030022Y03035D02*
Y030665D01*
X029865Y030507D01*
X030075D01*
X0268Y033515D02*
Y0332D01*
X026957D01*
X02701Y033252D01*
Y033462D01*
X026957Y033515D01*
X0268D01*
X027115Y033462D02*
X027167Y033515D01*
X027272D01*
X027325Y033462D01*
Y03341D01*
X027272Y033357D01*
X02722D01*
X027272D01*
X027325Y033305D01*
Y033252D01*
X027272Y0332D01*
X027167D01*
X027115Y033252D01*
X020885Y03235D02*
X0212D01*
Y032507D01*
X021148Y03256D01*
X020938D01*
X020885Y032507D01*
Y03235D01*
X0212Y032875D02*
Y032665D01*
X02099Y032875D01*
X020938D01*
X020885Y032822D01*
Y032717D01*
X020938Y032665D01*
D38*
X02165Y032772D02*
D03*
M02*
