G04 Layer_Color=8421504*
%FSAX24Y24*%
%MOIN*%
G70*
G01*
G75*
%ADD10R,0.0335X0.0512*%
%ADD11R,0.0374X0.0276*%
%ADD12R,0.0512X0.0335*%
%ADD13R,0.0728X0.0492*%
%ADD14O,0.0551X0.0177*%
%ADD15R,0.0551X0.0177*%
%ADD16R,0.0236X0.0374*%
%ADD17R,0.0630X0.0591*%
%ADD18R,0.0472X0.0472*%
D10*
X026400Y032296D02*
D03*
Y033104D02*
D03*
X021500Y031404D02*
D03*
Y030596D02*
D03*
D11*
X026950Y032895D02*
D03*
Y032305D02*
D03*
D12*
X028604Y033300D02*
D03*
X027796D02*
D03*
X024054Y030350D02*
D03*
X023246D02*
D03*
X024554Y033600D02*
D03*
X023746D02*
D03*
X028604Y032500D02*
D03*
X027796D02*
D03*
D13*
X021650Y032260D02*
D03*
Y033540D02*
D03*
D14*
X025061Y032896D02*
D03*
Y032640D02*
D03*
Y033152D02*
D03*
Y032128D02*
D03*
Y032384D02*
D03*
Y031872D02*
D03*
Y031616D02*
D03*
Y031104D02*
D03*
Y031360D02*
D03*
Y030848D02*
D03*
X022739Y032640D02*
D03*
Y032896D02*
D03*
Y032384D02*
D03*
Y032128D02*
D03*
Y031616D02*
D03*
Y031872D02*
D03*
Y030848D02*
D03*
Y031104D02*
D03*
Y031360D02*
D03*
D15*
Y033152D02*
D03*
D16*
X026700Y031541D02*
D03*
X026326Y030459D02*
D03*
X027074D02*
D03*
D17*
X028306Y030570D02*
D03*
D18*
X027913Y031850D02*
D03*
X028700D02*
D03*
M02*
