G04 Layer_Color=2752767*
%FSAX24Y24*%
%MOIN*%
G70*
G01*
G75*
%ADD59C,0.0020*%
%ADD60C,0.0027*%
D59*
X025720Y032820D02*
Y032980D01*
X025880D01*
Y032820D01*
X025720D01*
X023770Y032270D02*
Y032430D01*
X023930D01*
Y032270D01*
X023770D01*
X020420D02*
Y032430D01*
X020580D01*
Y032270D01*
X020420D01*
Y031370D02*
Y031530D01*
X020580D01*
Y031370D01*
X020420D01*
X020470Y033270D02*
Y033430D01*
X020630D01*
Y033270D01*
X020470D01*
Y030520D02*
Y030680D01*
X020630D01*
Y030520D01*
X020470D01*
X030350Y031020D02*
X030270Y031180D01*
X030430D01*
X030350Y031020D01*
X029400Y032770D02*
X029320Y032930D01*
X029480D01*
X029400Y032770D01*
X031170Y033120D02*
Y033280D01*
X031330D01*
Y033120D01*
X031170D01*
Y030620D02*
Y030780D01*
X031330D01*
Y030620D01*
X031170D01*
X027150Y031770D02*
X027190Y031810D01*
X027230D01*
X027190Y031850D01*
X027230Y031890D01*
X027190D01*
X027150Y031930D01*
X027110Y031890D01*
X027070D01*
X027110Y031850D01*
X027070Y031810D01*
X027110D01*
X027150Y031770D01*
X025800Y032270D02*
X025840Y032310D01*
X025880D01*
X025840Y032350D01*
X025880Y032390D01*
X025840D01*
X025800Y032430D01*
X025760Y032390D01*
X025720D01*
X025760Y032350D01*
X025720Y032310D01*
X025760D01*
X025800Y032270D01*
X026700Y030920D02*
X026740Y030960D01*
X026780D01*
X026740Y031000D01*
X026780Y031040D01*
X026740D01*
X026700Y031080D01*
X026660Y031040D01*
X026620D01*
X026660Y031000D01*
X026620Y030960D01*
X026660D01*
X026700Y030920D01*
X025800Y031320D02*
X025840Y031360D01*
X025880D01*
X025840Y031400D01*
X025880Y031440D01*
X025840D01*
X025800Y031480D01*
X025760Y031440D01*
X025720D01*
X025760Y031400D01*
X025720Y031360D01*
X025760D01*
X025800Y031320D01*
X024300Y032820D02*
X024340Y032860D01*
X024380D01*
X024340Y032900D01*
X024380Y032940D01*
X024340D01*
X024300Y032980D01*
X024260Y032940D01*
X024220D01*
X024260Y032900D01*
X024220Y032860D01*
X024260D01*
X024300Y032820D01*
X022000Y030320D02*
X022040Y030360D01*
X022080D01*
X022040Y030400D01*
X022080Y030440D01*
X022040D01*
X022000Y030480D01*
X021960Y030440D01*
X021920D01*
X021960Y030400D01*
X021920Y030360D01*
X021960D01*
X022000Y030320D01*
D60*
X029430Y031100D02*
G03*
X029430Y031100I-000080J000000D01*
G01*
X030480Y032850D02*
G03*
X030480Y032850I-000080J000000D01*
G01*
X023730Y031100D02*
G03*
X023730Y031100I-000080J000000D01*
G01*
M02*
