G04 Layer_Color=8421504*
%FSTAX24Y24*%
%MOIN*%
G70*
G01*
G75*
%ADD10R,0.0551X0.0453*%
%ADD11R,0.0472X0.0472*%
%ADD12R,0.0630X0.0591*%
%ADD13R,0.0512X0.0335*%
%ADD14R,0.0236X0.0374*%
%ADD15O,0.0551X0.0177*%
%ADD16R,0.0551X0.0177*%
%ADD17R,0.0728X0.0492*%
%ADD18R,0.0335X0.0433*%
%ADD19R,0.0374X0.0354*%
%ADD20R,0.0335X0.0512*%
D10*
X02185Y031544D02*
D03*
Y030856D02*
D03*
D11*
X0287Y03185D02*
D03*
X027913D02*
D03*
D12*
X028306Y03057D02*
D03*
D13*
X027846Y0325D02*
D03*
X028654D02*
D03*
X023746Y03365D02*
D03*
X024554D02*
D03*
X023246Y03035D02*
D03*
X024054D02*
D03*
X027796Y0333D02*
D03*
X028604D02*
D03*
D14*
X027074Y030459D02*
D03*
X026326D02*
D03*
X0267Y031541D02*
D03*
D15*
X022739Y03136D02*
D03*
Y031104D02*
D03*
Y030848D02*
D03*
Y031872D02*
D03*
Y031616D02*
D03*
Y032128D02*
D03*
Y032384D02*
D03*
Y032896D02*
D03*
Y03264D02*
D03*
X025061Y030848D02*
D03*
Y03136D02*
D03*
Y031104D02*
D03*
Y031616D02*
D03*
Y031872D02*
D03*
Y032384D02*
D03*
Y032128D02*
D03*
Y033152D02*
D03*
Y03264D02*
D03*
Y032896D02*
D03*
D16*
X022739Y033152D02*
D03*
D17*
X02165Y03358D02*
D03*
Y0323D02*
D03*
D18*
X0212Y030796D02*
D03*
Y031604D02*
D03*
D19*
X02695Y032305D02*
D03*
Y032895D02*
D03*
D20*
X0264Y033104D02*
D03*
Y032296D02*
D03*
M02*
