G04 Layer_Color=32768*
%FSTAX24Y24*%
%MOIN*%
G70*
G01*
G75*
%ADD34C,0.0039*%
%ADD58C,0.0020*%
D34*
X022221Y031059D02*
X022614D01*
X022418Y030863D02*
Y031256D01*
X026503Y031D02*
X026897D01*
X0267Y030803D02*
Y031197D01*
X0264Y032543D02*
Y032857D01*
X026243Y0327D02*
X026557D01*
X02695Y032443D02*
Y032757D01*
X026793Y0326D02*
X027107D01*
X0223Y032453D02*
Y032847D01*
X022103Y03265D02*
X022497D01*
X028043Y0333D02*
X028357D01*
X0282Y033143D02*
Y033457D01*
X0215Y030843D02*
Y031157D01*
X021343Y031D02*
X021657D01*
X02165Y032703D02*
Y033097D01*
X021453Y0329D02*
X021847D01*
X023493Y03035D02*
X023807D01*
X02365Y030193D02*
Y030507D01*
X0239Y031803D02*
Y032197D01*
X023703Y032D02*
X024097D01*
X023993Y0336D02*
X024307D01*
X02415Y033443D02*
Y033757D01*
X026503Y031D02*
X026897D01*
X0267Y030803D02*
Y031197D01*
X028043Y0325D02*
X028357D01*
X0282Y032343D02*
Y032657D01*
X028306Y030374D02*
Y030767D01*
X028109Y03057D02*
X028503D01*
X024003Y03075D02*
X024397D01*
X0242Y030553D02*
Y030947D01*
D58*
X021326Y030056D02*
Y032063D01*
X023491Y030056D02*
Y032063D01*
X021326Y030056D02*
X023491D01*
X021326Y032063D02*
X023491D01*
X027389Y030173D02*
Y031827D01*
X026011Y030173D02*
X027389D01*
X026011Y031827D02*
X027389D01*
X026011Y030173D02*
Y031827D01*
X026124Y031932D02*
X026676D01*
Y033468D01*
X026124Y031932D02*
Y033468D01*
X026676D01*
X026655Y033131D02*
X027245D01*
X026655Y032069D02*
Y033131D01*
X027245Y032069D02*
Y033131D01*
X026655Y032069D02*
X027245D01*
X023481Y03202D02*
Y03328D01*
X021119Y03202D02*
X023481D01*
X021119Y03328D02*
X023481D01*
X021119Y03202D02*
Y03328D01*
X028968Y033024D02*
Y033576D01*
X027432D02*
X028968D01*
X027432Y033024D02*
X028968D01*
X027432D02*
Y033576D01*
X021224Y031768D02*
X021776D01*
X021224Y030232D02*
Y031768D01*
X021776Y030232D02*
Y031768D01*
X021224Y030232D02*
X021776D01*
X021187Y031916D02*
Y033884D01*
Y031916D02*
X022113D01*
X021187Y033884D02*
X022113D01*
Y031916D02*
Y033884D01*
X024418Y030074D02*
Y030626D01*
X022882D02*
X024418D01*
X022882Y030074D02*
X024418D01*
X022882D02*
Y030626D01*
X025435Y030602D02*
Y033398D01*
X022365D02*
X025435D01*
X022365Y030602D02*
X025435D01*
X022365D02*
Y033398D01*
X024918Y033324D02*
Y033876D01*
X023382D02*
X024918D01*
X023382Y033324D02*
X024918D01*
X023382D02*
Y033876D01*
X027389Y030173D02*
Y031827D01*
X026011D02*
X027389D01*
X026011Y030173D02*
X027389D01*
X026011D02*
Y031827D01*
X028968Y032224D02*
Y032776D01*
X027432D02*
X028968D01*
X027432Y032224D02*
X028968D01*
X027432D02*
Y032776D01*
X027556Y03017D02*
Y03217D01*
Y03017D02*
X029133D01*
X027556Y03217D02*
X029133D01*
Y03017D02*
Y03217D01*
X023826Y030081D02*
Y031419D01*
X024574Y030081D02*
Y031419D01*
X023826D02*
X024574D01*
X023826Y030081D02*
X024574D01*
M02*
