G04 Layer_Color=2752767*
%FSTAX24Y24*%
%MOIN*%
G70*
G01*
G75*
%ADD63C,0.0020*%
%ADD64C,0.0027*%
D63*
X02357Y03102D02*
Y03118D01*
X02373D01*
Y03102D01*
X02357D01*
X0294Y03277D02*
X02932Y03293D01*
X02948D01*
X0294Y03277D01*
X03032D02*
Y03293D01*
X03048D01*
Y03277D01*
X03032D01*
X03035Y03102D02*
X03027Y03118D01*
X03043D01*
X03035Y03102D01*
X02927D02*
Y03118D01*
X02943D01*
Y03102D01*
X02927D01*
X0243Y03282D02*
X02434Y03286D01*
X02438D01*
X02434Y0329D01*
X02438Y03294D01*
X02434D01*
X0243Y03298D01*
X02426Y03294D01*
X02422D01*
X02426Y0329D01*
X02422Y03286D01*
X02426D01*
X0243Y03282D01*
X0267Y03092D02*
X02674Y03096D01*
X02678D01*
X02674Y031D01*
X02678Y03104D01*
X02674D01*
X0267Y03108D01*
X02666Y03104D01*
X02662D01*
X02666Y031D01*
X02662Y03096D01*
X02666D01*
X0267Y03092D01*
X0258Y03142D02*
X02584Y03146D01*
X02588D01*
X02584Y0315D01*
X02588Y03154D01*
X02584D01*
X0258Y03158D01*
X02576Y03154D01*
X02572D01*
X02576Y0315D01*
X02572Y03146D01*
X02576D01*
X0258Y03142D01*
Y03227D02*
X02584Y03231D01*
X02588D01*
X02584Y03235D01*
X02588Y03239D01*
X02584D01*
X0258Y03243D01*
X02576Y03239D01*
X02572D01*
X02576Y03235D01*
X02572Y03231D01*
X02576D01*
X0258Y03227D01*
X02695Y03192D02*
X02699Y03196D01*
X02703D01*
X02699Y032D01*
X02703Y03204D01*
X02699D01*
X02695Y03208D01*
X02691Y03204D01*
X02687D01*
X02691Y032D01*
X02687Y03196D01*
X02691D01*
X02695Y03192D01*
D64*
X03133Y0307D02*
G03*
X03133Y0307I-00008J0D01*
G01*
Y0332D02*
G03*
X03133Y0332I-00008J0D01*
G01*
X02063Y0306D02*
G03*
X02063Y0306I-00008J0D01*
G01*
Y03335D02*
G03*
X02063Y03335I-00008J0D01*
G01*
X02058Y03145D02*
G03*
X02058Y03145I-00008J0D01*
G01*
Y03235D02*
G03*
X02058Y03235I-00008J0D01*
G01*
X02393D02*
G03*
X02393Y03235I-00008J0D01*
G01*
X02588Y0329D02*
G03*
X02588Y0329I-00008J0D01*
G01*
M02*
