G04 Layer_Color=8388736*
%FSAX24Y24*%
%MOIN*%
G70*
G01*
G75*
%ADD39R,0.0415X0.0592*%
%ADD40R,0.0454X0.0356*%
%ADD41R,0.0592X0.0415*%
%ADD42R,0.0808X0.0572*%
%ADD43O,0.0631X0.0257*%
%ADD44R,0.0631X0.0257*%
%ADD45R,0.0316X0.0454*%
%ADD46R,0.0710X0.0671*%
%ADD47R,0.0552X0.0552*%
%ADD48C,0.0552*%
%ADD49C,0.0867*%
%ADD50C,0.0680*%
%ADD51C,0.0395*%
D39*
X026400Y032296D02*
D03*
Y033104D02*
D03*
X021500Y031404D02*
D03*
Y030596D02*
D03*
D40*
X026950Y032895D02*
D03*
Y032305D02*
D03*
D41*
X028604Y033300D02*
D03*
X027796D02*
D03*
X024054Y030350D02*
D03*
X023246D02*
D03*
X024554Y033600D02*
D03*
X023746D02*
D03*
X028604Y032500D02*
D03*
X027796D02*
D03*
D42*
X021650Y032260D02*
D03*
Y033540D02*
D03*
D43*
X025061Y032896D02*
D03*
Y032640D02*
D03*
Y033152D02*
D03*
Y032128D02*
D03*
Y032384D02*
D03*
Y031872D02*
D03*
Y031616D02*
D03*
Y031104D02*
D03*
Y031360D02*
D03*
Y030848D02*
D03*
X022739Y032640D02*
D03*
Y032896D02*
D03*
Y032384D02*
D03*
Y032128D02*
D03*
Y031616D02*
D03*
Y031872D02*
D03*
Y030848D02*
D03*
Y031104D02*
D03*
Y031360D02*
D03*
D44*
Y033152D02*
D03*
D45*
X026700Y031541D02*
D03*
X026326Y030459D02*
D03*
X027074D02*
D03*
D46*
X028306Y030570D02*
D03*
D47*
X027913Y031850D02*
D03*
X028700D02*
D03*
D48*
X025800Y032900D02*
D03*
X023850Y032350D02*
D03*
X020500D02*
D03*
Y031450D02*
D03*
D49*
X020550Y033350D02*
D03*
Y030600D02*
D03*
X031250Y033200D02*
D03*
Y030700D02*
D03*
D50*
X029350Y031100D02*
D03*
X030350D02*
D03*
X030400Y032850D02*
D03*
X029400D02*
D03*
X023650Y031100D02*
D03*
D51*
X027150Y031850D02*
D03*
X025800Y032350D02*
D03*
X026700Y031000D02*
D03*
X025800Y031400D02*
D03*
X024300Y032900D02*
D03*
X022000Y030400D02*
D03*
M02*
