G04 Layer_Color=16711935*
%FSAX24Y24*%
%MOIN*%
G70*
G01*
G75*
%ADD45R,0.0316X0.0454*%
%ADD48C,0.0552*%
%ADD49C,0.0867*%
%ADD50C,0.0680*%
%ADD51C,0.0395*%
%ADD52R,0.0631X0.0316*%
%ADD53R,0.0789X0.0316*%
%ADD54R,0.0867X0.0730*%
%ADD55R,0.0631X0.0533*%
G36*
X023266Y031349D02*
X023271Y031348D01*
X023276Y031346D01*
X023281Y031344D01*
X023285Y031341D01*
X023289Y031338D01*
X023421Y031206D01*
X023425Y031202D01*
X023428Y031198D01*
X023430Y031193D01*
X023432Y031188D01*
X023433Y031183D01*
X023433Y031178D01*
Y030941D01*
X023433Y030936D01*
X023432Y030931D01*
X023430Y030926D01*
X023428Y030921D01*
X023425Y030917D01*
X023421Y030913D01*
X023289Y030781D01*
X023285Y030778D01*
X023281Y030775D01*
X023276Y030772D01*
X023271Y030771D01*
X023266Y030770D01*
X023261Y030769D01*
X022265D01*
X022260Y030770D01*
X022255Y030771D01*
X022250Y030772D01*
X022245Y030775D01*
X022241Y030778D01*
X022237Y030781D01*
X022105Y030913D01*
X022101Y030917D01*
X022098Y030921D01*
X022096Y030926D01*
X022094Y030931D01*
X022093Y030936D01*
X022093Y030941D01*
Y031178D01*
X022093Y031183D01*
X022094Y031188D01*
X022096Y031193D01*
X022098Y031198D01*
X022101Y031202D01*
X022105Y031206D01*
X022237Y031338D01*
X022241Y031341D01*
X022245Y031344D01*
X022250Y031346D01*
X022255Y031348D01*
X022260Y031349D01*
X022265Y031350D01*
X023261D01*
X023266Y031349D01*
D02*
G37*
D45*
X026700Y030459D02*
D03*
X026326Y031541D02*
D03*
X027074D02*
D03*
D48*
X025800Y032900D02*
D03*
X023850Y032350D02*
D03*
X020500D02*
D03*
Y031450D02*
D03*
D49*
X020550Y033350D02*
D03*
Y030600D02*
D03*
X031250Y033200D02*
D03*
Y030700D02*
D03*
D50*
X029350Y031100D02*
D03*
X030350D02*
D03*
X030400Y032850D02*
D03*
X029400D02*
D03*
X023650Y031100D02*
D03*
D51*
X027150Y031850D02*
D03*
X025800Y032350D02*
D03*
X026700Y031000D02*
D03*
X025800Y031400D02*
D03*
X024300Y032900D02*
D03*
X022000Y030400D02*
D03*
D52*
X021700Y030469D02*
D03*
Y031650D02*
D03*
D53*
X021779Y031059D02*
D03*
D54*
X023038Y032650D02*
D03*
X021562D02*
D03*
D55*
X024200Y031094D02*
D03*
Y030406D02*
D03*
M02*
