G04 Layer_Color=32896*
%FSAX24Y24*%
%MOIN*%
G70*
G01*
G75*
%ADD20C,0.0100*%
%ADD21C,0.0079*%
%ADD36C,0.0098*%
%ADD37C,0.0059*%
D20*
X024080Y032230D02*
X024180Y032330D01*
X024380D01*
X024480Y032230D01*
Y031830D01*
X024380Y031730D01*
X024180D01*
X024080Y031830D01*
X023880Y031730D02*
X023680D01*
X023780D01*
Y032330D01*
X023880Y032230D01*
D21*
X021906Y030154D02*
X022929D01*
Y030528D01*
X021906Y031965D02*
X022929D01*
Y031591D02*
Y031965D01*
X027291Y030646D02*
Y031197D01*
X026976Y030646D02*
X027291D01*
X026109D02*
Y031197D01*
Y030646D02*
X026424D01*
X023206Y032079D02*
Y032168D01*
Y033132D02*
Y033221D01*
X021394Y032079D02*
X023206D01*
X021394D02*
Y032168D01*
Y033221D02*
X023206D01*
X021394Y033132D02*
Y033221D01*
D36*
X021699Y030134D02*
G03*
X021699Y030134I-000049J000000D01*
G01*
X026041Y031541D02*
G03*
X026041Y031541I-000049J000000D01*
G01*
X023511Y033191D02*
G03*
X023511Y033191I-000049J000000D01*
G01*
D37*
X021215Y031000D02*
X020952D01*
X020900Y031052D01*
Y031157D01*
X020952Y031210D01*
X021215D01*
X020900Y031315D02*
Y031420D01*
Y031367D01*
X021215D01*
X021162Y031315D01*
X027440Y030252D02*
Y030462D01*
X027493Y030515D01*
X027598D01*
X027650Y030462D01*
Y030252D01*
X027598Y030200D01*
X027493D01*
X027545Y030305D02*
X027440Y030200D01*
X027493D02*
X027440Y030252D01*
X027335Y030200D02*
X027230D01*
X027283D01*
Y030515D01*
X027335Y030462D01*
X023500Y033865D02*
Y033550D01*
X023343D01*
X023290Y033602D01*
Y033812D01*
X023343Y033865D01*
X023500D01*
X023185Y033550D02*
X023080D01*
X023133D01*
Y033865D01*
X023185Y033812D01*
M02*
