G04 Layer_Color=32896*
%FSTAX24Y24*%
%MOIN*%
G70*
G01*
G75*
%ADD22C,0.0079*%
%ADD38C,0.0098*%
%ADD41C,0.0059*%
D22*
X023206Y033132D02*
Y033221D01*
Y032079D02*
Y032168D01*
X021394Y033221D02*
X023206D01*
X021394Y033132D02*
Y033221D01*
Y032079D02*
X023206D01*
X021394D02*
Y032168D01*
X026109Y030646D02*
X026424D01*
X026109D02*
Y031197D01*
X026976Y030646D02*
X027291D01*
Y031197D01*
X022929Y031591D02*
Y031965D01*
X021906D02*
X022929D01*
Y030154D02*
Y030528D01*
X021906Y030154D02*
X022929D01*
D38*
X023511Y033191D02*
G03*
X023511Y033191I-000049J0D01*
G01*
X026041Y031541D02*
G03*
X026041Y031541I-000049J0D01*
G01*
X021699Y030134D02*
G03*
X021699Y030134I-000049J0D01*
G01*
D41*
X02431Y031952D02*
X024363Y032005D01*
X024468D01*
X02452Y031952D01*
Y031742D01*
X024468Y03169D01*
X024363D01*
X02431Y031742D01*
X024205Y03169D02*
X0241D01*
X024153D01*
Y032005D01*
X024205Y031952D01*
X024Y033065D02*
Y03275D01*
X023843D01*
X02379Y032802D01*
Y033012D01*
X023843Y033065D01*
X024D01*
X023685Y03275D02*
X02358D01*
X023633D01*
Y033065D01*
X023685Y033012D01*
X02774Y031052D02*
Y031262D01*
X027793Y031315D01*
X027898D01*
X02795Y031262D01*
Y031052D01*
X027898Y031D01*
X027793D01*
X027845Y031105D02*
X02774Y031D01*
X027793D02*
X02774Y031052D01*
X027635Y031D02*
X02753D01*
X027583D01*
Y031315D01*
X027635Y031262D01*
X021215Y031D02*
X020952D01*
X0209Y031052D01*
Y031157D01*
X020952Y03121D01*
X021215D01*
X0209Y031315D02*
Y03142D01*
Y031367D01*
X021215D01*
X021162Y031315D01*
M02*
