G04 Layer_Physical_Order=2*
G04 Layer_Color=16711680*
%FSTAX24Y24*%
%MOIN*%
G70*
G01*
G75*
%ADD10R,0.0551X0.0453*%
%ADD14R,0.0236X0.0374*%
%ADD22C,0.0079*%
%ADD23C,0.0197*%
%ADD24C,0.0394*%
%ADD28C,0.0600*%
%ADD29C,0.0787*%
%ADD30C,0.0472*%
%ADD31C,0.0315*%
%ADD32R,0.0787X0.0650*%
%ADD33R,0.0551X0.0236*%
%ADD34R,0.0709X0.0236*%
%ADD35C,0.0591*%
%ADD36C,0.0551*%
%ADD37C,0.0472*%
G36*
X023436Y03089D02*
X023414Y030911D01*
X023391Y03093D01*
X023386Y030934D01*
X023261Y030809D01*
X022265D01*
X022133Y030941D01*
Y031178D01*
X022265Y031309D01*
X023261D01*
X023336Y031235D01*
X023343Y031239D01*
X023367Y031253D01*
X023391Y03127D01*
X023414Y031289D01*
X023436Y03131D01*
Y03089D01*
D02*
G37*
G36*
X022389Y031811D02*
X02231Y031733D01*
X022078Y031534D01*
X022041Y031512D01*
X022012Y031501D01*
X021991Y0315D01*
X021978Y031511D01*
X021974Y031533D01*
X021515Y031766D01*
X021554Y031752D01*
X021597Y031749D01*
X021645Y031756D01*
X021697Y031774D01*
X021754Y031801D01*
X021816Y031838D01*
X021883Y031886D01*
X021954Y031943D01*
X022111Y032089D01*
X022389Y031811D01*
D02*
G37*
G36*
X023403Y032322D02*
X023369Y03231D01*
X023329Y032289D01*
X023283Y03226D01*
X023232Y032222D01*
X023112Y032122D01*
X022968Y031988D01*
X022887Y031909D01*
X022511Y032089D01*
X022555Y032134D01*
X022646Y032241D01*
X022663Y032267D01*
X022673Y032289D01*
X022677Y032305D01*
X022673Y032317D01*
X022663Y032324D01*
X022646Y032327D01*
X023431D01*
X023403Y032322D01*
D02*
G37*
D10*
X0242Y030406D02*
D03*
Y031094D02*
D03*
D14*
X027074Y031541D02*
D03*
X026326D02*
D03*
X0267Y030459D02*
D03*
D22*
X02575Y0324D02*
X0258Y03235D01*
D23*
X0243Y0329D02*
X02485Y03235D01*
X02365Y0311D02*
X0248D01*
X025656Y031956D01*
X0258Y0315D02*
X026285D01*
X025656Y031956D02*
X026206D01*
X026623Y032373D01*
X02485Y03235D02*
X0258D01*
X030327Y032373D02*
X03045Y03225D01*
X027106Y032373D02*
X030327D01*
X027105Y032374D02*
X027106Y032373D01*
X026795Y032374D02*
X027105D01*
X026794Y032373D02*
X026795Y032374D01*
X026623Y032373D02*
X026794D01*
X026285Y0315D02*
X026326Y031541D01*
X0304Y03275D02*
X03045Y0327D01*
X02285Y0311D02*
X02365D01*
X03045Y03125D02*
Y03225D01*
Y0327D01*
D24*
X020681Y033531D02*
X020706Y033506D01*
X027074Y031541D02*
Y031876D01*
X02695Y032D02*
X027074Y031876D01*
X023038Y032338D02*
Y03265D01*
X0217Y03165D02*
X02195D01*
X02265Y03195D02*
X023038Y032338D01*
X02195Y03165D02*
X02225Y03195D01*
X02265D01*
X0205Y0306D02*
X02055D01*
X027074Y031074D02*
Y031541D01*
X02701Y03101D02*
X027074Y031074D01*
X02616Y03101D02*
X02701D01*
D28*
X02365Y0311D02*
D03*
X0294Y03285D02*
D03*
X0304D02*
D03*
X03035Y0311D02*
D03*
X02935D02*
D03*
D29*
X03125Y0307D02*
D03*
Y0332D02*
D03*
X02055Y0306D02*
D03*
Y03335D02*
D03*
D30*
X0205Y03145D02*
D03*
Y03235D02*
D03*
X02385D02*
D03*
X0258Y0329D02*
D03*
D31*
X0243D02*
D03*
X0267Y031D02*
D03*
X0258Y0315D02*
D03*
Y03235D02*
D03*
X02695Y032D02*
D03*
D32*
X023038Y03265D02*
D03*
X021562D02*
D03*
D33*
X0217Y03165D02*
D03*
Y030469D02*
D03*
D34*
X021779Y031059D02*
D03*
D35*
X02155Y033553D02*
X030894Y033517D01*
X020706Y033556D02*
X02155Y033553D01*
X02155Y033517D02*
X021562Y033505D01*
Y03265D02*
Y033505D01*
X030894Y033517D02*
X031211Y0332D01*
X03125D01*
X0267Y030439D02*
X030989D01*
X02075Y0304D02*
X02555D01*
D36*
X02616Y03101D01*
D37*
X030989Y030439D02*
X03125Y0307D01*
X02055Y0306D02*
X02075Y0304D01*
M02*
