G04 Layer_Color=2752767*
%FSTAX24Y24*%
%MOIN*%
G70*
G01*
G75*
%ADD71C,0.0020*%
%ADD72C,0.0027*%
D71*
X03897Y03337D02*
Y03353D01*
X03913D01*
Y03337D01*
X03897D01*
X03907Y03047D02*
Y03063D01*
X03923D01*
Y03047D01*
X03907D01*
X020424Y03057D02*
Y03073D01*
X020584D01*
Y03057D01*
X020424D01*
Y03327D02*
Y03343D01*
X020584D01*
Y03327D01*
X020424D01*
X0355Y03117D02*
X03542Y03133D01*
X03558D01*
X0355Y03117D01*
X0352Y03122D02*
X03512Y03138D01*
X03528D01*
X0352Y03122D01*
X02765Y03172D02*
X02757Y03188D01*
X02773D01*
X02765Y03172D01*
X03022Y03167D02*
Y03183D01*
X03038D01*
Y03167D01*
X03022D01*
X02882Y03072D02*
Y03088D01*
X02898D01*
Y03072D01*
X02882D01*
X02042Y03302D02*
Y03318D01*
X02058D01*
Y03302D01*
X02042D01*
X020424Y03087D02*
Y03103D01*
X020584D01*
Y03087D01*
X020424D01*
X03845Y03337D02*
X03837Y03353D01*
X03853D01*
X03845Y03337D01*
X038725Y033345D02*
X038645Y033505D01*
X038805D01*
X038725Y033345D01*
X0349Y03122D02*
X03482Y03138D01*
X03498D01*
X0349Y03122D01*
X03135Y03262D02*
X03127Y03278D01*
X03143D01*
X03135Y03262D01*
X03805Y03337D02*
X03797Y03353D01*
X03813D01*
X03805Y03337D01*
X0222Y03212D02*
X02212Y03228D01*
X02228D01*
X0222Y03212D01*
X02705Y03122D02*
X02697Y03138D01*
X02713D01*
X02705Y03122D01*
D72*
X02683Y03275D02*
G03*
X02683Y03275I-00008J0D01*
G01*
X02758Y0325D02*
G03*
X02758Y0325I-00008J0D01*
G01*
M02*
