G04 Layer_Physical_Order=1*
G04 Layer_Color=255*
%FSTAX24Y24*%
%MOIN*%
G70*
G01*
G75*
%ADD10R,0.0787X0.0650*%
%ADD11R,0.0591X0.0394*%
%ADD12R,0.0335X0.0433*%
%ADD13R,0.0600X0.0757*%
%ADD14C,0.0787*%
%ADD15R,0.0374X0.0276*%
%ADD16R,0.0433X0.0335*%
%ADD17R,0.1181X0.0492*%
%ADD18R,0.2441X0.1496*%
%ADD19R,0.0492X0.0728*%
%ADD20R,0.0236X0.0374*%
%ADD21R,0.0453X0.0551*%
%ADD22R,0.0551X0.0177*%
%ADD23O,0.0551X0.0177*%
%ADD24R,0.0551X0.0236*%
%ADD25R,0.0709X0.0236*%
%ADD26R,0.0551X0.0453*%
%ADD27C,0.0787*%
%ADD28C,0.0157*%
%ADD29C,0.0236*%
%ADD30C,0.0315*%
%ADD31C,0.0197*%
%ADD32C,0.0276*%
%ADD33C,0.0866*%
%ADD34C,0.0591*%
%ADD35C,0.0394*%
%ADD36C,0.0472*%
%ADD37R,0.0787X0.0787*%
%ADD38C,0.0500*%
%ADD39C,0.0441*%
G36*
X022426Y031218D02*
Y030982D01*
X022294Y03085D01*
X021298D01*
X021166Y030982D01*
Y031218D01*
X021298Y03135D01*
X022294D01*
X022426Y031218D01*
D02*
G37*
D10*
X021462Y0331D02*
D03*
X022938D02*
D03*
D11*
X02395Y0335D02*
D03*
D12*
X02915Y030796D02*
D03*
Y031604D02*
D03*
X0303Y032246D02*
D03*
Y033054D02*
D03*
X0297Y030796D02*
D03*
Y031604D02*
D03*
X02495Y030696D02*
D03*
Y031504D02*
D03*
D13*
X03425Y03185D02*
D03*
X03325D02*
D03*
X03245D02*
D03*
X03145D02*
D03*
D14*
X02935Y0326D02*
D03*
X03905Y03345D02*
D03*
X03915Y03055D02*
D03*
X020504Y03065D02*
D03*
D15*
X0303Y031395D02*
D03*
Y030805D02*
D03*
D16*
X027604Y0336D02*
D03*
X026796D02*
D03*
X026746Y03045D02*
D03*
X027554D02*
D03*
D17*
X035411Y032598D02*
D03*
Y030802D02*
D03*
D18*
X03795Y0317D02*
D03*
D19*
X02381Y033D02*
D03*
X02509D02*
D03*
D20*
X024Y030409D02*
D03*
X023626Y031491D02*
D03*
X024374D02*
D03*
D21*
X024494Y0322D02*
D03*
X023806D02*
D03*
D22*
X025989Y033202D02*
D03*
D23*
Y032946D02*
D03*
Y03269D02*
D03*
Y032434D02*
D03*
Y032178D02*
D03*
Y031922D02*
D03*
Y031666D02*
D03*
Y03141D02*
D03*
Y031154D02*
D03*
Y030898D02*
D03*
X028311Y033202D02*
D03*
Y032946D02*
D03*
Y03269D02*
D03*
Y032434D02*
D03*
Y032178D02*
D03*
Y031922D02*
D03*
Y031666D02*
D03*
Y03141D02*
D03*
Y031154D02*
D03*
Y030898D02*
D03*
D24*
X022859Y031691D02*
D03*
Y030509D02*
D03*
D25*
X02278Y0311D02*
D03*
D26*
X02075Y032194D02*
D03*
Y031506D02*
D03*
D27*
X0379Y03135D02*
Y03185D01*
X0391Y0306D02*
X03915Y03055D01*
X03865Y0306D02*
X0391D01*
X0379Y03135D02*
X03865Y0306D01*
D28*
X024844Y032D02*
X02525D01*
X02545Y0318D01*
Y0316D02*
Y0318D01*
Y0316D02*
X02564Y03141D01*
X0297Y030796D02*
X029708Y030805D01*
X0303D01*
X028832Y031922D02*
X02915Y031604D01*
X02935Y0324D02*
Y0326D01*
X02915Y0322D02*
X02935Y0324D01*
X02915Y031604D02*
Y0322D01*
X0297Y03135D02*
Y031604D01*
X02955Y0312D02*
X0297Y03135D01*
X028945Y0312D02*
X02955D01*
X028744Y0314D02*
X028945Y0312D01*
X028321Y0314D02*
X028744D01*
X028311Y03141D02*
X028321Y0314D01*
X02509Y03262D02*
X025532Y032178D01*
X03245Y03185D02*
X03325D01*
X0275Y0325D02*
X0276D01*
X02779Y03269D01*
X0303Y033054D02*
X030446Y0332D01*
X03425Y03185D02*
Y033D01*
X03405Y0332D02*
X03425Y033D01*
X030446Y0332D02*
X03405D01*
X024374Y031491D02*
X024938D01*
X02495Y030696D02*
X025296D01*
X025498Y030898D01*
X026396Y031154D02*
X02675Y0308D01*
X026834Y031666D02*
X02705Y03145D01*
X026434Y032434D02*
X02675Y03275D01*
X02779Y03269D02*
X028311D01*
X025532Y032178D02*
X025989D01*
X025498Y030898D02*
X025989D01*
Y032434D02*
X026434D01*
X028311Y031922D02*
X028832D01*
X025989Y031154D02*
X026396D01*
X02564Y03141D02*
X025989D01*
Y031666D02*
X026834D01*
X028311Y033202D02*
X030152D01*
X0303Y033054D01*
X02509Y03262D02*
Y033D01*
X024544Y0323D02*
X024844Y032D01*
X02705Y0313D02*
Y03145D01*
X02675Y0308D02*
X02735D01*
X02765Y0311D01*
D29*
X024Y030409D02*
X024153Y030256D01*
X027554Y030333D02*
Y03035D01*
X030533Y030333D02*
X03075Y03055D01*
Y0315D01*
X0311Y03185D01*
X03145D01*
X029434Y030333D02*
X029434Y030333D01*
X030533D01*
X02765Y0311D02*
Y0318D01*
X024153Y030256D02*
X026652D01*
X026746Y03035D01*
X025989Y033539D02*
X02605Y0336D01*
X026752D01*
X027554Y030333D02*
X029434D01*
D30*
X023626Y030526D02*
Y031491D01*
X023641D01*
X023806Y031656D01*
X03245Y03185D02*
Y0324D01*
X03215Y0327D02*
X03245Y0324D01*
X024938Y031491D02*
X02495Y031504D01*
X020504Y03065D02*
Y03095D01*
X03135Y0327D02*
X03215D01*
X023806Y031656D02*
Y0322D01*
Y0323D01*
X020504Y03095D02*
Y03126D01*
X021744Y031456D02*
Y0322D01*
X0222D01*
X021744Y031456D02*
X0221Y0311D01*
X023007Y030526D02*
X023626D01*
X022931Y03045D02*
X023007Y030526D01*
X020504Y03126D02*
X02075Y031506D01*
Y0322D02*
X021744D01*
D31*
X025989Y033202D02*
Y033539D01*
X0303Y031395D02*
Y03175D01*
Y032246D01*
D32*
X035361Y032748D02*
Y033339D01*
X0351Y0336D02*
X035361Y033339D01*
X027604Y0336D02*
X0351D01*
D33*
X0354Y03115D02*
X0355Y03125D01*
D34*
X020554Y0333D02*
X021262D01*
X021462Y0331D01*
X022943Y03185D02*
Y0331D01*
D35*
X020504Y03065D02*
X020704Y03045D01*
X022931D01*
D36*
X02675Y03275D02*
D03*
X0275Y0325D02*
D03*
D37*
X020504Y03335D02*
D03*
D38*
X0355Y03125D02*
D03*
X0352Y0313D02*
D03*
X03845Y03345D02*
D03*
X038725Y033425D02*
D03*
X0349Y0313D02*
D03*
X03135Y0327D02*
D03*
X03805Y03345D02*
D03*
X0222Y0322D02*
D03*
D39*
X02765Y0318D02*
D03*
X0303Y03175D02*
D03*
X0289Y0308D02*
D03*
X0205Y0331D02*
D03*
X020504Y03095D02*
D03*
X02705Y0313D02*
D03*
M02*
