G04 Layer_Color=65535*
%FSTAX24Y24*%
%MOIN*%
G70*
G01*
G75*
%ADD29C,0.0236*%
%ADD41C,0.0098*%
%ADD42C,0.0100*%
%ADD43C,0.0039*%
%ADD44C,0.0079*%
%ADD45C,0.0071*%
%ADD46R,0.0217X0.0650*%
D29*
X026933Y032956D02*
G03*
X026933Y032956I-000118J0D01*
G01*
D41*
X023411Y032559D02*
G03*
X023411Y032559I-000049J0D01*
G01*
X03546Y03306D02*
G03*
X03546Y03306I-000049J0D01*
G01*
X024758Y031491D02*
G03*
X024758Y031491I-000049J0D01*
G01*
X026038Y033507D02*
G03*
X026038Y033507I-000049J0D01*
G01*
X022958Y030175D02*
G03*
X022958Y030175I-000049J0D01*
G01*
D42*
X0329Y0312D02*
G03*
X032914Y032518I000754J000651D01*
G01*
X0311Y0312D02*
G03*
X031114Y032518I000754J000651D01*
G01*
X0329Y0312D02*
Y032498D01*
X0311Y0312D02*
Y032498D01*
X018609Y03304D02*
Y032541D01*
X018709Y032441D01*
X018909D01*
X019009Y032541D01*
Y03304D01*
X019208Y032441D02*
X019408D01*
X019308D01*
Y03304D01*
X019208Y03294D01*
X0267Y0286D02*
Y0292D01*
X027D01*
X0271Y0291D01*
Y0289D01*
X027Y0288D01*
X0267D01*
X0269D02*
X0271Y0286D01*
X0277Y0292D02*
X0275Y0291D01*
X0273Y0289D01*
Y0287D01*
X0274Y0286D01*
X0276D01*
X0277Y0287D01*
Y0288D01*
X0276Y0289D01*
X0273D01*
X0283Y02595D02*
Y02535D01*
X028D01*
X0279Y02545D01*
Y02565D01*
X028Y02575D01*
X0283D01*
X0281D02*
X0279Y02595D01*
X0273Y02535D02*
X0277D01*
Y02565D01*
X0275Y02555D01*
X0274D01*
X0273Y02565D01*
Y02585D01*
X0274Y02595D01*
X0276D01*
X0277Y02585D01*
X0249Y03445D02*
Y03505D01*
X0252D01*
X0253Y03495D01*
Y03475D01*
X0252Y03465D01*
X0249D01*
X0251D02*
X0253Y03445D01*
X0258D02*
Y03505D01*
X0255Y03475D01*
X0259D01*
X0318Y0354D02*
X0324D01*
Y0351D01*
X0323Y035D01*
X0321D01*
X032Y0351D01*
Y0354D01*
Y0352D02*
X0318Y035D01*
Y0344D02*
Y0348D01*
X0322Y0344D01*
X0323D01*
X0324Y0345D01*
Y0347D01*
X0323Y0348D01*
X02715Y03615D02*
Y03675D01*
X02745D01*
X02755Y03665D01*
Y03645D01*
X02745Y03635D01*
X02715D01*
X02735D02*
X02755Y03615D01*
X02775D02*
X02795D01*
X02785D01*
Y03675D01*
X02775Y03665D01*
X0237Y03515D02*
Y03555D01*
X0236Y03565D01*
X0234D01*
X0233Y03555D01*
Y03515D01*
X0234Y03505D01*
X0236D01*
X0235Y03525D02*
X0237Y03505D01*
X0236D02*
X0237Y03515D01*
X0239Y03555D02*
X024Y03565D01*
X0242D01*
X0243Y03555D01*
Y03545D01*
X0242Y03535D01*
X0241D01*
X0242D01*
X0243Y03525D01*
Y03515D01*
X0242Y03505D01*
X024D01*
X0239Y03515D01*
X0329Y0277D02*
Y0273D01*
X033Y0272D01*
X0332D01*
X0333Y0273D01*
Y0277D01*
X0332Y0278D01*
X033D01*
X0331Y0276D02*
X0329Y0278D01*
X033D02*
X0329Y0277D01*
X0323Y0278D02*
X0327D01*
X0323Y0274D01*
Y0273D01*
X0324Y0272D01*
X0326D01*
X0327Y0273D01*
X0354Y03465D02*
Y03505D01*
X0353Y03515D01*
X0351D01*
X035Y03505D01*
Y03465D01*
X0351Y03455D01*
X0353D01*
X0352Y03475D02*
X0354Y03455D01*
X0353D02*
X0354Y03465D01*
X0356Y03455D02*
X0358D01*
X0357D01*
Y03515D01*
X0356Y03505D01*
X0299Y03545D02*
Y03605D01*
X0302D01*
X0303Y03595D01*
Y03575D01*
X0302Y03565D01*
X0299D01*
X0305Y03595D02*
X0306Y03605D01*
X0308D01*
X0309Y03595D01*
Y03585D01*
X0308Y03575D01*
X0309Y03565D01*
Y03555D01*
X0308Y03545D01*
X0306D01*
X0305Y03555D01*
Y03565D01*
X0306Y03575D01*
X0305Y03585D01*
Y03595D01*
X0306Y03575D02*
X0308D01*
X023615Y034235D02*
Y034835D01*
X023915D01*
X024015Y034735D01*
Y034535D01*
X023915Y034435D01*
X023615D01*
X024215Y034835D02*
X024615D01*
Y034735D01*
X024215Y034335D01*
Y034235D01*
X02675Y0343D02*
Y0349D01*
X02705D01*
X02715Y0348D01*
Y0346D01*
X02705Y0345D01*
X02675D01*
X02775Y0349D02*
X02755Y0348D01*
X02735Y0346D01*
Y0344D01*
X02745Y0343D01*
X02765D01*
X02775Y0344D01*
Y0345D01*
X02765Y0346D01*
X02735D01*
X0277Y0347D02*
Y0353D01*
X028D01*
X0281Y0352D01*
Y035D01*
X028Y0349D01*
X0277D01*
X0287Y0353D02*
X0283D01*
Y035D01*
X0285Y0351D01*
X0286D01*
X0287Y035D01*
Y0348D01*
X0286Y0347D01*
X0284D01*
X0283Y0348D01*
X038715Y034185D02*
Y034785D01*
X039015D01*
X039115Y034685D01*
Y034485D01*
X039015Y034385D01*
X038715D01*
X039615Y034185D02*
Y034785D01*
X039315Y034485D01*
X039715D01*
X038815Y031285D02*
Y031885D01*
X039115D01*
X039215Y031785D01*
Y031585D01*
X039115Y031485D01*
X038815D01*
X039415Y031785D02*
X039515Y031885D01*
X039715D01*
X039815Y031785D01*
Y031685D01*
X039715Y031585D01*
X039615D01*
X039715D01*
X039815Y031485D01*
Y031385D01*
X039715Y031285D01*
X039515D01*
X039415Y031385D01*
X01835Y03125D02*
Y03185D01*
X01865D01*
X01875Y03175D01*
Y03155D01*
X01865Y03145D01*
X01835D01*
X01935Y03125D02*
X01895D01*
X01935Y03165D01*
Y03175D01*
X01925Y03185D01*
X01905D01*
X01895Y03175D01*
X020169Y034085D02*
Y034685D01*
X020469D01*
X020569Y034585D01*
Y034385D01*
X020469Y034285D01*
X020169D01*
X020769Y034085D02*
X020969D01*
X020869D01*
Y034685D01*
X020769Y034585D01*
X03275Y0281D02*
Y0287D01*
X03245D01*
X03235Y0286D01*
Y0282D01*
X03245Y0281D01*
X03275D01*
X03185Y0287D02*
Y0281D01*
X03215Y0284D01*
X03175D01*
X0273Y02555D02*
Y02615D01*
X027D01*
X0269Y02605D01*
Y02565D01*
X027Y02555D01*
X0273D01*
X0267Y02565D02*
X0266Y02555D01*
X0264D01*
X0263Y02565D01*
Y02575D01*
X0264Y02585D01*
X0265D01*
X0264D01*
X0263Y02595D01*
Y02605D01*
X0264Y02615D01*
X0266D01*
X0267Y02605D01*
X02111Y03464D02*
Y03404D01*
X02141D01*
X02151Y03414D01*
Y03454D01*
X02141Y03464D01*
X02111D01*
X02171Y03404D02*
X02191D01*
X02181D01*
Y03464D01*
X02171Y03454D01*
X023Y0348D02*
X0229Y0349D01*
X0227D01*
X0226Y0348D01*
Y0344D01*
X0227Y0343D01*
X0229D01*
X023Y0344D01*
X0236Y0343D02*
X0232D01*
X0236Y0347D01*
Y0348D01*
X0235Y0349D01*
X0233D01*
X0232Y0348D01*
X01935Y02935D02*
X01925Y02925D01*
Y02905D01*
X01935Y02895D01*
X01975D01*
X01985Y02905D01*
Y02925D01*
X01975Y02935D01*
X01985Y02955D02*
Y02975D01*
Y02965D01*
X01925D01*
X01935Y02955D01*
X022Y0333D02*
X0226D01*
Y0336D01*
X0225Y0337D01*
X0221D01*
X022Y0336D01*
Y0333D01*
X0226Y0343D02*
Y0339D01*
X0222Y0343D01*
X0221D01*
X022Y0342D01*
Y034D01*
X0221Y0339D01*
X0315Y02915D02*
Y02975D01*
X0318D01*
X0319Y02965D01*
Y02945D01*
X0318Y02935D01*
X0315D01*
X0317D02*
X0319Y02915D01*
X0321Y02965D02*
X0322Y02975D01*
X0324D01*
X0325Y02965D01*
Y02955D01*
X0324Y02945D01*
X0323D01*
X0324D01*
X0325Y02935D01*
Y02925D01*
X0324Y02915D01*
X0322D01*
X0321Y02925D01*
X02605Y036D02*
Y0355D01*
X02615Y0354D01*
X02635D01*
X02645Y0355D01*
Y036D01*
X02705Y0354D02*
X02665D01*
X02705Y0358D01*
Y0359D01*
X02695Y036D01*
X02675D01*
X02665Y0359D01*
D43*
X03059Y031617D02*
G03*
X03059Y031617I-00002J0D01*
G01*
D44*
X021294Y033582D02*
Y033671D01*
X023106Y033582D02*
Y033671D01*
X021294Y032529D02*
Y032618D01*
X023106Y032529D02*
Y032618D01*
X021294Y033671D02*
X023106D01*
X021294Y032529D02*
X023106D01*
X029022Y031161D02*
Y031239D01*
X029278Y031161D02*
Y031239D01*
X030172Y032611D02*
Y032689D01*
X030428Y032611D02*
Y032689D01*
X029572Y031161D02*
Y031239D01*
X029828Y031161D02*
Y031239D01*
X030448Y031061D02*
Y031139D01*
X030152Y031061D02*
Y031139D01*
X027161Y033472D02*
X027239D01*
X027161Y033728D02*
X027239D01*
X036218Y032999D02*
X036533D01*
X036218Y030401D02*
Y032999D01*
Y030401D02*
X036533D01*
X024214Y033325D02*
X024686D01*
X024214Y032675D02*
X024686D01*
X024214D02*
Y033325D01*
X024822Y031061D02*
Y031139D01*
X025078Y031061D02*
Y031139D01*
X023409Y030596D02*
X023724D01*
X023409D02*
Y031147D01*
X024276Y030596D02*
X024591D01*
Y031147D01*
X026422Y030751D02*
Y033349D01*
X027878Y030751D02*
Y033349D01*
X026422D02*
X027878D01*
X026422Y030751D02*
X027878D01*
X021629Y031632D02*
Y032006D01*
X022653D01*
X021629Y030194D02*
Y030568D01*
Y030194D02*
X022653D01*
X027111Y030578D02*
X027189D01*
X027111Y030322D02*
X027189D01*
D45*
X0201Y032706D02*
X020441D01*
X020271Y032876D02*
Y032535D01*
X020194Y0313D02*
Y031641D01*
X0374Y033506D02*
X037741D01*
X037571Y033676D02*
Y033335D01*
X038Y030356D02*
X038341D01*
D46*
X024322Y033D02*
D03*
M02*
