G04 Layer_Color=8388736*
%FSTAX24Y24*%
%MOIN*%
G70*
G01*
G75*
%ADD47R,0.0867X0.0730*%
%ADD48R,0.0671X0.0474*%
%ADD49R,0.0415X0.0513*%
%ADD50R,0.0680X0.0837*%
%ADD51C,0.0867*%
%ADD52R,0.0454X0.0356*%
%ADD53R,0.0513X0.0415*%
%ADD54R,0.1261X0.0572*%
%ADD55R,0.2521X0.1576*%
%ADD56R,0.0572X0.0808*%
%ADD57R,0.0316X0.0454*%
%ADD58R,0.0533X0.0631*%
%ADD59R,0.0631X0.0257*%
%ADD60O,0.0631X0.0257*%
%ADD61R,0.0631X0.0316*%
%ADD62R,0.0789X0.0316*%
%ADD63R,0.0631X0.0533*%
%ADD64C,0.0552*%
%ADD65R,0.0867X0.0867*%
%ADD66C,0.0580*%
%ADD67C,0.0521*%
G36*
X022299Y03139D02*
X022304Y031389D01*
X022309Y031387D01*
X022314Y031385D01*
X022318Y031382D01*
X022322Y031378D01*
X022454Y031246D01*
X022457Y031243D01*
X02246Y031238D01*
X022463Y031233D01*
X022464Y031228D01*
X022465Y031223D01*
X022466Y031218D01*
Y030982D01*
X022465Y030977D01*
X022464Y030972D01*
X022463Y030967D01*
X02246Y030962D01*
X022457Y030957D01*
X022454Y030954D01*
X022322Y030822D01*
X022318Y030818D01*
X022314Y030815D01*
X022309Y030813D01*
X022304Y030811D01*
X022299Y03081D01*
X022294Y03081D01*
X021298D01*
X021292Y03081D01*
X021287Y030811D01*
X021282Y030813D01*
X021278Y030815D01*
X021273Y030818D01*
X021269Y030822D01*
X021137Y030954D01*
X021134Y030957D01*
X021131Y030962D01*
X021129Y030967D01*
X021127Y030972D01*
X021126Y030977D01*
X021126Y030982D01*
Y031218D01*
X021126Y031223D01*
X021127Y031228D01*
X021129Y031233D01*
X021131Y031238D01*
X021134Y031243D01*
X021137Y031246D01*
X021269Y031378D01*
X021273Y031382D01*
X021278Y031385D01*
X021282Y031387D01*
X021287Y031389D01*
X021292Y03139D01*
X021298Y03139D01*
X022294D01*
X022299Y03139D01*
D02*
G37*
D47*
X021462Y0331D02*
D03*
X022938D02*
D03*
D48*
X02395Y0335D02*
D03*
D49*
X02915Y030796D02*
D03*
Y031604D02*
D03*
X0303Y032246D02*
D03*
Y033054D02*
D03*
X0297Y030796D02*
D03*
Y031604D02*
D03*
X02495Y030696D02*
D03*
Y031504D02*
D03*
D50*
X03425Y03185D02*
D03*
X03325D02*
D03*
X03245D02*
D03*
X03145D02*
D03*
D51*
X02935Y0326D02*
D03*
X03905Y03345D02*
D03*
X03915Y03055D02*
D03*
X020504Y03065D02*
D03*
D52*
X0303Y031395D02*
D03*
Y030805D02*
D03*
D53*
X027604Y0336D02*
D03*
X026796D02*
D03*
X026746Y03045D02*
D03*
X027554D02*
D03*
D54*
X035411Y032598D02*
D03*
Y030802D02*
D03*
D55*
X03795Y0317D02*
D03*
D56*
X02381Y033D02*
D03*
X02509D02*
D03*
D57*
X024Y030409D02*
D03*
X023626Y031491D02*
D03*
X024374D02*
D03*
D58*
X024494Y0322D02*
D03*
X023806D02*
D03*
D59*
X025989Y033202D02*
D03*
D60*
Y032946D02*
D03*
Y03269D02*
D03*
Y032434D02*
D03*
Y032178D02*
D03*
Y031922D02*
D03*
Y031666D02*
D03*
Y03141D02*
D03*
Y031154D02*
D03*
Y030898D02*
D03*
X028311Y033202D02*
D03*
Y032946D02*
D03*
Y03269D02*
D03*
Y032434D02*
D03*
Y032178D02*
D03*
Y031922D02*
D03*
Y031666D02*
D03*
Y03141D02*
D03*
Y031154D02*
D03*
Y030898D02*
D03*
D61*
X022859Y031691D02*
D03*
Y030509D02*
D03*
D62*
X02278Y0311D02*
D03*
D63*
X02075Y032194D02*
D03*
Y031506D02*
D03*
D64*
X02675Y03275D02*
D03*
X0275Y0325D02*
D03*
D65*
X020504Y03335D02*
D03*
D66*
X0355Y03125D02*
D03*
X0352Y0313D02*
D03*
X03845Y03345D02*
D03*
X038725Y033425D02*
D03*
X0349Y0313D02*
D03*
X03135Y0327D02*
D03*
X03805Y03345D02*
D03*
X0222Y0322D02*
D03*
D67*
X02765Y0318D02*
D03*
X0303Y03175D02*
D03*
X0289Y0308D02*
D03*
X0205Y0331D02*
D03*
X020504Y03095D02*
D03*
X02705Y0313D02*
D03*
M02*
