M48
;Layer_Color=9474304
;FILE_FORMAT=2:4
INCH,LZ
;TYPE=PLATED
T1F00S00C0.0236
T2F00S00C0.0264
T3F00S00C0.0280
%
T01
X03915Y03055
X0289Y0308
X020504Y03095
Y03065
X0205Y0331
X020504Y03335
X0303Y03175
X03905Y03345
T02
X02675Y03275
X0275Y0325
T03
X0222Y0322
X02705Y0313
X02765Y0318
X03135Y0327
X0349Y0313
X0352
X0355Y03125
X03805Y03345
X03845
X038725Y033425
M30
