G04 Layer_Physical_Order=2*
G04 Layer_Color=16711680*
%FSTAX24Y24*%
%MOIN*%
G70*
G01*
G75*
%ADD14C,0.0787*%
%ADD28C,0.0157*%
%ADD30C,0.0315*%
%ADD33C,0.0866*%
%ADD34C,0.0591*%
%ADD36C,0.0472*%
%ADD37R,0.0787X0.0787*%
%ADD38C,0.0500*%
%ADD39C,0.0441*%
%ADD40C,0.0984*%
D14*
X03905Y03345D02*
D03*
X03915Y03055D02*
D03*
X020504Y03065D02*
D03*
D28*
X03905Y0335D02*
X0392Y03335D01*
D30*
X022222Y032278D02*
X026722D01*
X02705Y03195D01*
X02965Y03265D02*
X0313D01*
X02895Y03195D02*
X02965Y03265D01*
X0313D02*
X03135Y0327D01*
X0222Y032255D02*
X022222Y032278D01*
X0222Y0322D02*
Y032255D01*
X02705Y03195D02*
X02895D01*
D33*
X0293Y03065D02*
X03055Y0319D01*
X0355Y03125D02*
Y03165D01*
X03525Y0319D02*
X0355Y03165D01*
X03055Y0319D02*
X03525D01*
D34*
X03905Y03345D02*
Y0335D01*
Y0334D02*
Y03345D01*
X03875Y0334D02*
X03905D01*
X020504Y03345D02*
X03805D01*
X038725Y033425D02*
X03875Y0334D01*
X03845Y03345D02*
X0387D01*
X03805D02*
X03845D01*
D36*
X02675Y03275D02*
D03*
X0275Y0325D02*
D03*
D37*
X020504Y03335D02*
D03*
D38*
X0355Y03125D02*
D03*
X0352Y0313D02*
D03*
X03845Y03345D02*
D03*
X038725Y033425D02*
D03*
X0349Y0313D02*
D03*
X03135Y0327D02*
D03*
X03805Y03345D02*
D03*
X0222Y0322D02*
D03*
D39*
X02765Y0318D02*
D03*
X0303Y03175D02*
D03*
X0289Y0308D02*
D03*
X0205Y0331D02*
D03*
X020504Y03095D02*
D03*
X02705Y0313D02*
D03*
D40*
X02065Y03065D02*
X0293D01*
M02*
