G04 Layer_Color=32768*
%FSTAX24Y24*%
%MOIN*%
G70*
G01*
G75*
%ADD43C,0.0039*%
%ADD70C,0.0020*%
D43*
X0222Y032903D02*
Y033297D01*
X022003Y0331D02*
X022397D01*
X02915Y031043D02*
Y031357D01*
X028993Y0312D02*
X029307D01*
X0303Y032493D02*
Y032807D01*
X030143Y03265D02*
X030457D01*
X0297Y031043D02*
Y031357D01*
X029543Y0312D02*
X029857D01*
X0303Y030943D02*
Y031257D01*
X030143Y0311D02*
X030457D01*
X027043Y0336D02*
X027357D01*
X0272Y033443D02*
Y033757D01*
X036828Y0317D02*
X037222D01*
X037025Y031503D02*
Y031897D01*
X024253Y033D02*
X024647D01*
X02445Y032803D02*
Y033197D01*
X02495Y030943D02*
Y031257D01*
X024793Y0311D02*
X025107D01*
X023803Y03095D02*
X024197D01*
X024Y030753D02*
Y031147D01*
X02415Y032003D02*
Y032397D01*
X023953Y0322D02*
X024347D01*
X026953Y03205D02*
X027347D01*
X02715Y031853D02*
Y032247D01*
X022141Y030903D02*
Y031297D01*
X021944Y0311D02*
X022338D01*
X020553Y03185D02*
X020947D01*
X02075Y031653D02*
Y032047D01*
X026993Y03045D02*
X027307D01*
X02715Y030293D02*
Y030607D01*
D70*
X021019Y03373D02*
X023381D01*
X021019Y03247D02*
X023381D01*
X021019D02*
Y03373D01*
X023381Y03247D02*
Y03373D01*
X028874Y0305D02*
X029426D01*
X028874Y0319D02*
X029426D01*
X028874Y0305D02*
Y0319D01*
X029426Y0305D02*
Y0319D01*
X030024Y03195D02*
X030576D01*
X030024Y03335D02*
X030576D01*
X030024Y03195D02*
Y03335D01*
X030576Y03195D02*
Y03335D01*
X029424Y0305D02*
X029976D01*
X029424Y0319D02*
X029976D01*
X029424Y0305D02*
Y0319D01*
X029976Y0305D02*
Y0319D01*
X030005Y031632D02*
X030595D01*
X030005Y030568D02*
X030595D01*
Y031632D01*
X030005Y030568D02*
Y031632D01*
X0279Y033324D02*
Y033876D01*
X0265Y033324D02*
Y033876D01*
Y033324D02*
X0279D01*
X0265Y033876D02*
X0279D01*
X034741Y030302D02*
Y033098D01*
X039308Y030302D02*
Y033098D01*
X034741D02*
X039308D01*
X034741Y030302D02*
X039308D01*
X023466Y032537D02*
Y033463D01*
X025434Y032537D02*
Y033463D01*
X023466D02*
X025434D01*
X023466Y032537D02*
X025434D01*
X024674Y0304D02*
X025226D01*
X024674Y0318D02*
X025226D01*
X024674Y0304D02*
Y0318D01*
X025226Y0304D02*
Y0318D01*
X023311Y030123D02*
Y031777D01*
X024689Y030123D02*
Y031777D01*
X023311Y030123D02*
X024689D01*
X023311Y031777D02*
X024689D01*
X023481Y031826D02*
X024819D01*
X023481Y032574D02*
X024819D01*
Y031826D02*
Y032574D01*
X023481Y031826D02*
Y032574D01*
X025615Y030652D02*
Y033448D01*
X028685Y030652D02*
Y033448D01*
X025615D02*
X028685D01*
X025615Y030652D02*
X028685D01*
X021067Y032104D02*
X023233D01*
X021067Y030096D02*
X023233D01*
X021067D02*
Y032104D01*
X023233Y030096D02*
Y032104D01*
X021124Y031181D02*
Y032519D01*
X020376Y031181D02*
Y032519D01*
X021124D01*
X020376Y031181D02*
X021124D01*
X02645Y030174D02*
Y030726D01*
X02785Y030174D02*
Y030726D01*
X02645D02*
X02785D01*
X02645Y030174D02*
X02785D01*
M02*
